<?xml version="1.0" encoding="UTF-8"?>
<!DOCTYPE svg PUBLIC "-//W3C//DTD SVG 1.1//EN" "http://www.w3.org/Graphics/SVG/1.1/DTD/svg11.dtd">
<!-- Creator: CorelDRAW 2017 -->
<svg xmlns="http://www.w3.org/2000/svg" xml:space="preserve" width="891px" height="606px" version="1.1" style="shape-rendering:geometricPrecision; text-rendering:geometricPrecision; image-rendering:optimizeQuality; fill-rule:evenodd; clip-rule:evenodd"
viewBox="0 0 888.63 604.98"
 xmlns:xlink="http://www.w3.org/1999/xlink">
 <defs>
  <style type="text/css">
   <![CDATA[
    .fil1 {fill:#FEFEFE;fill-rule:nonzero}
    .fil3 {fill:#EA5E20;fill-rule:nonzero}
    .fil2 {fill:#14693C;fill-rule:nonzero}
    .fil0 {fill:#005A35;fill-rule:nonzero}
   ]]>
  </style>
 </defs>
 <g id="Layer_x0020_1">
  <metadata id="CorelCorpID_0Corel-Layer"/>
  <path class="fil0" d="M767.69 293.05l-0.01 0c12.24,11.94 23.51,24.98 33.74,38.9 5.98,30.72 6.26,62.14 5.23,93.61 -0.65,19.42 -3.25,81.43 -4.66,102.6 11.21,-1.33 22.44,-2.41 33.67,-3.32 1.98,-79.64 -8.98,-200.7 -32.73,-261.76 -3.53,-16.28 -5.99,-32.84 -7.14,-49.54l0 0c1.15,-62.85 19.74,-121.55 56.47,-171.59 -31.02,51.18 -41.92,116.33 -32.89,175.68 15.48,-12.84 30.71,-26.39 42.56,-43.02 11.86,-16.62 20.22,-36.72 20.2,-57.37 -0.02,-19.45 -7.32,-37.82 -10.78,-56.84 -3.46,-19.02 -2.86,-43.37 10.87,-56.53 -38.84,13.12 -72.04,44.89 -88.41,84.61 -14.83,35.97 -18.95,67.27 -5.89,103.38 -0.77,10.89 -0.45,26.19 0.06,37.07 -6.6,-14.12 -10.85,-21.64 -18.81,-34.82 -0.97,-54.73 -29.43,-107.46 -73.16,-135.53 -43.72,-28.09 -95.95,-28.4 -142.71,-4.31 20.89,2.01 37.45,19.42 47.98,38.5 10.54,19.08 16.9,40.63 28.03,59.32 21.66,36.34 73.84,59.84 114.72,59.23 -29.96,-57.5 -73.97,-106.98 -128.43,-138.18 51.67,14.7 95.34,53.2 125.83,99.58 27.46,41.79 43.58,85.26 54.83,135.16 -10.75,-11.33 -26.09,-24.41 -38.67,-33.39 -18.41,-33.28 -44.8,-50.41 -80.23,-59.84 -39.12,-10.42 -82.73,-1.62 -116.16,23.43 18.06,-3.63 36.25,10.8 48.04,25.42 11.81,14.62 20.77,32.09 34.99,44.04 15.11,12.69 34.94,17.91 54.39,18 19.44,0.1 38.7,-4.55 57.6,-9.88 -37.91,-44.1 -92.28,-74.79 -148.77,-79.75 59.16,-0.6 113.53,19.57 160.24,57.14z"/>
  <path class="fil1" d="M767.69 293.05l1.57 -0.38 0 0 -1.58 0.38 -1.13 1.17c12.17,11.87 23.38,24.84 33.56,38.69l1.31 -0.96 -1.6 0.31c4.33,22.24 5.66,44.9 5.66,67.72 0,8.49 -0.18,17 -0.47,25.52 -0.64,19.4 -3.24,81.44 -4.64,102.56l-0.13 1.95 1.94 -0.23c11.2,-1.33 22.39,-2.41 33.61,-3.32l1.46 -0.1 0.04 -1.47c0.15,-6.11 0.23,-12.47 0.23,-19.02 -0.02,-79.03 -11,-186.57 -33.08,-243.38l-1.51 0.59 1.59 -0.35c-3.51,-16.21 -5.96,-32.69 -7.11,-49.31l-1.62 0.12 -1.53 0.57 0.01 0.01 2.99 7.82 0.16 -8.38c1.14,-62.54 19.63,-120.88 56.16,-170.65l-1.32 -0.96 -1.39 -0.85c-24.18,39.9 -36.2,88.14 -36.2,135.58 0,13.87 1.03,27.68 3.09,41.2l0.43 2.84 2.21 -1.83c15.52,-12.87 30.86,-26.51 42.86,-43.34 11.99,-16.8 20.49,-37.17 20.5,-58.24l0 -0.08c-0.04,-19.85 -7.4,-38.31 -10.81,-57.11 -1.07,-5.92 -1.75,-12.35 -1.75,-18.77 -0.01,-13.98 3.23,-27.8 12.15,-36.31l5.28 -5.04 -6.93 2.33c-39.33,13.29 -72.83,45.37 -89.4,85.53 -8.76,21.26 -13.85,41.02 -13.85,61.15 -0.01,14.1 2.5,28.37 7.95,43.4l1.52 -0.55 -1.62 -0.11c-0.34,4.78 -0.47,10.35 -0.47,16.02 0,7.43 0.23,15.05 0.51,21.24l1.64 -0.08 1.47 -0.69c-6.61,-14.15 -10.92,-21.79 -18.89,-34.98l-1.39 0.85 1.62 -0.03c-0.98,-55.26 -29.67,-108.45 -73.9,-136.87 -23.09,-14.83 -48.56,-22.02 -74.34,-22.02 -23.59,0 -47.44,6.01 -69.99,17.62l-4.92 2.54 5.51 0.54c20.02,1.88 36.31,18.8 46.71,37.67 10.43,18.87 16.79,40.42 28.05,59.35 21.87,36.56 73.35,59.98 114.56,60.05l1.58 -0.02 2.65 -0.03 -1.22 -2.35c-30.09,-57.73 -74.29,-107.45 -129.07,-138.83l-0.81 1.41 -0.45 1.56c51.19,14.56 94.59,52.77 124.92,98.92 27.33,41.6 43.38,84.84 54.6,134.62l1.59 -0.36 1.18 -1.12c-10.85,-11.43 -26.22,-24.54 -38.91,-33.59l-0.94 1.32 1.42 -0.78c-18.59,-33.69 -45.53,-51.16 -81.23,-60.63 -10.98,-2.93 -22.3,-4.35 -33.65,-4.35 -29.62,0 -59.45,9.72 -83.91,28.04l-5.76 4.32 7.06 -1.41c1.8,-0.37 3.61,-0.53 5.41,-0.53 15.21,-0.08 30.67,12.46 41.05,25.37 11.68,14.43 20.65,32.01 35.2,44.27 15.49,13 35.71,18.27 55.43,18.38l0.6 0c19.51,0 38.71,-4.66 57.45,-9.95l2.46 -0.69 -1.67 -1.93c-38.16,-44.39 -92.87,-75.3 -149.86,-80.31l-0.14 1.62 0.01 1.63 2.54 -0.01c57.8,0 110.88,19.96 156.66,56.8l3.78 3.03 -1.18 -4.69 -1.57 0.38 1.01 -1.26c-46.27,-37.25 -100.14,-57.52 -158.7,-57.52l-2.57 0.01 -0.13 3.25c56,4.92 110.04,35.38 147.68,79.2l1.24 -1.07 -0.44 -1.57c-18.66,5.26 -37.59,9.83 -56.57,9.83l-0.58 0c-19.18,-0.1 -38.63,-5.25 -53.35,-17.62 -13.9,-11.65 -22.84,-29.02 -34.77,-43.82 -10.72,-13.23 -26.56,-26.52 -43.58,-26.59 -2,0 -4.03,0.19 -6.05,0.59l0.32 1.6 0.97 1.3c23.89,-17.9 53.05,-27.41 81.96,-27.4 11.08,0 22.12,1.39 32.81,4.24 35.16,9.4 61,26.18 79.22,59.07l0.18 0.32 0.3 0.22c12.49,8.9 27.79,21.94 38.44,33.17l4.07 4.28 -1.3 -5.76c-11.27,-50.03 -27.47,-93.71 -55.07,-135.69 -30.64,-46.63 -74.56,-85.4 -126.74,-100.25l-12.82 -3.65 11.57 6.63c54.15,31.01 97.96,80.25 127.8,137.51l1.44 -0.75 -0.02 -1.63 -1.54 0.01c-40.05,0.06 -90.86,-23.23 -111.76,-58.45 -11,-18.45 -17.36,-39.96 -28,-59.26 -10.68,-19.31 -27.5,-37.2 -49.25,-39.34l-0.16 1.62 0.75 1.44c22.13,-11.39 45.47,-17.25 68.5,-17.25 25.18,0 50.01,6.99 72.58,21.48 43.23,27.74 71.47,80.02 72.41,134.2l0.01 0.43 0.23 0.38c7.95,13.17 12.14,20.6 18.72,34.67l3.49 7.46 -0.39 -8.22c-0.29,-6.16 -0.51,-13.71 -0.51,-21.09 0,-5.61 0.13,-11.13 0.46,-15.79l0.02 -0.35 -0.12 -0.32c-5.33,-14.72 -7.75,-28.59 -7.75,-42.3 0,-19.58 4.95,-38.88 13.62,-59.91 16.18,-39.3 49.07,-70.75 87.42,-83.69l-0.52 -1.54 -1.12 -1.17c-9.9,9.52 -13.14,24.22 -13.15,38.65 0,6.65 0.7,13.26 1.8,19.34 3.52,19.24 10.75,37.51 10.75,56.55l0 -0.03 0 0.1c0.01,20.18 -8.19,39.96 -19.89,56.36 -11.71,16.42 -26.83,29.9 -42.28,42.7l1.04 1.26 1.6 -0.25c-2.02,-13.34 -3.04,-26.99 -3.04,-40.7 0,-46.89 11.89,-94.59 35.73,-133.89l-2.71 -1.81c-36.94,50.33 -55.64,109.38 -56.79,172.52l1.63 0.04 1.52 -0.59 0 0 -3.9 -10.16 0.75 10.85c1.16,16.79 3.63,33.44 7.18,49.78l0.03 0.13 0.04 0.12c21.79,55.96 32.87,163.51 32.85,242.2 0,6.52 -0.08,12.85 -0.23,18.94l1.63 0.03 -0.13 -1.62c-11.25,0.9 -22.49,1.99 -33.73,3.33l0.19 1.61 1.62 0.12c1.42,-21.23 4.02,-83.22 4.66,-102.68 0.28,-8.54 0.47,-17.09 0.47,-25.62 0,-22.95 -1.34,-45.81 -5.72,-68.35l-0.07 -0.35 -0.22 -0.3c-10.28,-13.98 -21.6,-27.1 -33.91,-39.1l-4.1 -3.99 1.39 5.57 1.58 -0.41 1.01 -1.26 -1.01 1.26z"/>
  <polygon class="fil2" points="1.63,541.64 1.63,356.88 38.16,356.88 38.16,430.89 55.38,356.88 92.53,356.88 71.86,441.49 96.84,541.64 58.52,541.64 38.37,452.19 38.37,541.64 "/>
  <polygon class="fil1" points="1.63,541.64 3.26,541.64 3.26,358.51 36.53,358.51 36.53,445.07 56.67,358.51 90.46,358.51 70.18,441.5 94.75,540.01 59.83,540.01 36.74,437.57 36.74,540.01 1.63,540.01 1.63,541.64 3.26,541.64 1.63,541.64 1.63,543.27 39.99,543.27 39.99,466.83 57.22,543.27 98.92,543.27 73.53,441.49 94.61,355.26 54.08,355.26 39.78,416.71 39.78,355.26 0,355.26 0,543.27 1.63,543.27 "/>
  <path class="fil2" d="M145.96 514.14c3.08,0 5.18,-1.3 6.3,-3.9 1.12,-2.58 1.68,-5.38 1.68,-8.39l0 -43.88c-5.18,2.1 -9.2,4.74 -12.07,7.93 -2.87,3.18 -4.31,7.85 -4.31,14.01l0 20.26c0,9.3 2.8,13.97 8.4,13.97zm-14.8 29.17c-8.75,0 -15.41,-2.03 -19.99,-6.09 -4.59,-4.05 -7.72,-9.62 -9.4,-16.68 -1.68,-7.07 -2.52,-15.09 -2.52,-24.05 0,-9.58 0.95,-17.43 2.84,-23.55 1.89,-6.14 5.12,-11.15 9.71,-15.07 4.58,-3.92 10.89,-7.25 18.95,-9.97l23.3 -7.98 0 -16.17c0,-8.46 -2.77,-12.7 -8.3,-12.7 -5.04,0 -7.55,3.42 -7.55,10.29l0 9.44 -36.54 0 -0.1 -2.15c0,-0.87 0,-1.87 0,-2.99 0,-15.67 3.69,-26.79 11.08,-33.32 7.38,-6.55 19.08,-9.82 35.11,-9.82 8.4,0 15.92,1.49 22.57,4.45 6.65,2.99 11.91,7.38 15.8,13.19 3.88,5.81 5.82,12.98 5.82,21.51l0 119.99 -37.37 0 0 -18.69c-1.82,6.58 -4.82,11.62 -9.03,15.11 -4.19,3.5 -8.99,5.25 -14.38,5.25z"/>
  <path class="fil1" d="M145.96 514.14l0 1.62c3.52,0.08 6.51,-1.73 7.8,-4.86 1.21,-2.8 1.81,-5.84 1.81,-9.05l0 -46.29 -2.24 0.91c-5.35,2.17 -9.59,4.92 -12.67,8.33 -3.24,3.6 -4.72,8.72 -4.72,15.11l0 20.26c0.01,4.81 0.7,8.56 2.33,11.31 1.62,2.77 4.45,4.32 7.69,4.28l0 -3.25c-2.34,-0.05 -3.71,-0.82 -4.9,-2.7 -1.17,-1.91 -1.88,-5.15 -1.87,-9.64l0 -20.26c0.01,-5.92 1.38,-10.14 3.89,-12.92 2.66,-2.95 6.46,-5.48 11.47,-7.52l-0.61 -1.5 -1.63 0 0 43.88c0,2.81 -0.51,5.37 -1.54,7.75 -0.96,2.03 -2.17,2.82 -4.81,2.91l0 1.63zm-14.8 29.17l0 -1.63c-8.51,0 -14.73,-1.96 -18.91,-5.67 -4.3,-3.82 -7.27,-9.03 -8.89,-15.85 -1.65,-6.92 -2.48,-14.81 -2.48,-23.67 0,-9.47 0.94,-17.18 2.76,-23.08 1.81,-5.86 4.87,-10.58 9.22,-14.3 4.36,-3.74 10.49,-7 18.4,-9.67l0.03 -0.01 24.39 -8.36 0 -17.32c-0.01,-4.41 -0.7,-7.86 -2.34,-10.41 -1.64,-2.58 -4.42,-3.96 -7.59,-3.92 -2.87,-0.02 -5.41,1.07 -6.97,3.24 -1.57,2.15 -2.2,5.06 -2.21,8.68l0 7.81 -33.35 0 -0.04 -0.59 -1.62 0.07 1.63 0c0,-0.87 0,-1.87 0,-2.99 0,-15.45 3.65,-26.03 10.53,-32.11 6.91,-6.15 18.2,-9.4 34.03,-9.4 8.21,0 15.49,1.45 21.9,4.32 6.4,2.87 11.4,7.04 15.11,12.6 3.67,5.49 5.55,12.31 5.56,20.6l0 118.36 -34.12 0 0 -29.05 -3.2 11.55c-1.75,6.35 -4.6,11.06 -8.5,14.3 -3.94,3.27 -8.3,4.87 -13.34,4.87l0 3.26c5.74,0.01 10.97,-1.9 15.43,-5.63 4.5,-3.74 7.67,-9.11 9.55,-15.93l-1.57 -0.43 -1.63 0 0 20.32 40.63 0 0 -121.62c0,-8.77 -2.01,-16.3 -6.1,-22.42 -4.05,-6.06 -9.59,-10.67 -16.49,-13.76 -6.88,-3.08 -14.64,-4.61 -23.23,-4.61 -16.23,0.02 -28.34,3.3 -36.19,10.24 -7.89,7.01 -11.63,18.64 -11.63,34.54 0,1.12 0,2.12 0,2.99l0 0.04 0.11 2.19 0.08 1.55 39.71 0 0 -11.07c-0.01,-3.24 0.62,-5.48 1.57,-6.75 0.96,-1.27 2.18,-1.89 4.35,-1.91 2.36,0.04 3.73,0.77 4.86,2.44 1.12,1.69 1.82,4.57 1.81,8.63l0 15 -22.23 7.62 0.03 -0.02c-8.18,2.78 -14.68,6.18 -19.48,10.28 -4.83,4.12 -8.24,9.44 -10.21,15.82 -1.96,6.36 -2.9,14.35 -2.91,24.04 0,9.07 0.85,17.2 2.57,24.43 1.73,7.31 5.02,13.21 9.9,17.52 4.98,4.41 12.09,6.5 21.07,6.5l0 -1.63z"/>
  <polygon class="fil2" points="206.43,541.64 244.63,541.64 244.63,356.89 206.43,356.89 "/>
  <polygon class="fil1" points="206.43,541.64 208.05,541.64 208.05,358.51 243.01,358.51 243.01,540.01 206.43,540.01 206.43,541.64 208.05,541.64 206.43,541.64 206.43,543.27 246.27,543.27 246.27,355.26 204.8,355.26 204.8,543.27 206.43,543.27 "/>
  <path class="fil2" d="M306.88 514.02c3.92,0 6.29,-1.95 7.09,-5.87 0.8,-3.91 1.21,-8.75 1.21,-14.48l0 -61.52c0,-5.81 -0.41,-10.66 -1.21,-14.54 -0.8,-3.88 -3.17,-5.82 -7.09,-5.82 -4.06,0 -6.55,1.97 -7.5,5.93 -0.94,3.96 -1.42,8.76 -1.42,14.43l0 61.52c0,5.66 0.48,10.47 1.42,14.43 0.95,3.95 3.44,5.92 7.5,5.92zm-47.13 53.86l0 -183.71 38.21 0 0 16.81c2.31,-5.82 5.51,-10.35 9.61,-13.6 4.09,-3.25 9.95,-4.88 17.58,-4.88 10.29,0 17.55,3.74 21.78,11.23 4.23,7.49 6.35,17.29 6.35,29.39l0 77.48c0,8.03 -1.14,15.3 -3.41,21.77 -2.27,6.48 -5.84,11.58 -10.71,15.33 -4.86,3.74 -11.21,5.61 -19.05,5.61 -10.22,0 -17.6,-6.15 -22.15,-18.47l0 43.04 -38.21 0z"/>
  <path class="fil1" d="M306.88 514.02l0 1.63c2.23,0.01 4.22,-0.57 5.75,-1.83 1.54,-1.28 2.49,-3.14 2.94,-5.34 0.83,-4.07 1.23,-9 1.23,-14.81l0 -61.52c0,-5.88 -0.4,-10.83 -1.23,-14.86 -0.46,-2.2 -1.41,-4.05 -2.94,-5.31 -1.53,-1.25 -3.53,-1.83 -5.75,-1.83 -4.6,-0.12 -8.14,2.67 -9.09,7.18 -0.98,4.14 -1.45,9.06 -1.45,14.82l0 61.52c0,5.75 0.47,10.68 1.45,14.81 0.95,4.51 4.49,7.3 9.09,7.17l0 -3.25c-3.51,-0.14 -4.97,-1.28 -5.92,-4.68 -0.9,-3.78 -1.37,-8.48 -1.37,-14.05l0 -61.52c0,-5.58 0.47,-10.27 1.37,-14.06 0.95,-3.39 2.41,-4.55 5.92,-4.67 1.71,0 2.85,0.4 3.68,1.08 0.83,0.68 1.46,1.74 1.82,3.44 0.77,3.74 1.17,8.48 1.17,14.21l0 61.52c0,5.65 -0.4,10.38 -1.17,14.15 -0.36,1.71 -0.99,2.79 -1.82,3.49 -0.83,0.68 -1.97,1.08 -3.68,1.09l0 1.62zm-47.13 53.86l1.63 0 0 -182.08 34.96 0 0 23.68 3.13 -7.91c2.23,-5.59 5.27,-9.86 9.11,-12.92 3.7,-2.94 9.16,-4.52 16.57,-4.52 9.92,0.04 16.39,3.47 20.36,10.4 4.05,7.16 6.15,16.67 6.14,28.59l0 77.48c0,7.88 -1.12,14.96 -3.32,21.23 -2.19,6.23 -5.56,11.04 -10.16,14.58 -4.52,3.48 -10.47,5.27 -18.06,5.27 -9.47,-0.06 -16.11,-5.43 -20.62,-17.41l-3.15 -8.54 0 50.52 -36.59 0 0 1.63 1.63 0 -1.63 0 0 1.62 39.84 0 0 -44.66 -1.63 0 -1.52 0.57c4.58,12.65 12.71,19.59 23.67,19.53 8.09,0 14.84,-1.94 20.05,-5.96 5.13,-3.94 8.89,-9.35 11.25,-16.07 2.34,-6.67 3.5,-14.13 3.5,-22.31l0 -77.48c0,-12.29 -2.14,-22.36 -6.56,-30.2 -4.5,-8.02 -12.54,-12.1 -23.2,-12.06 -7.85,0.02 -14.1,1.68 -18.6,5.24 -4.35,3.46 -7.71,8.26 -10.1,14.27l1.51 0.61 1.63 0 0 -18.43 -41.47 0 0 186.95 1.63 0 0 -1.62z"/>
  <path class="fil2" d="M411.02 514.14c3.08,0 5.18,-1.3 6.29,-3.9 1.12,-2.58 1.69,-5.38 1.69,-8.39l0 -43.88c-5.19,2.1 -9.21,4.74 -12.08,7.93 -2.87,3.18 -4.3,7.85 -4.3,14.01l0 20.26c0,9.3 2.8,13.97 8.4,13.97zm-14.8 29.17c-8.75,0 -15.42,-2.03 -20,-6.09 -4.59,-4.05 -7.72,-9.62 -9.4,-16.68 -1.68,-7.07 -2.52,-15.09 -2.52,-24.05 0,-9.58 0.95,-17.43 2.84,-23.55 1.88,-6.14 5.12,-11.15 9.71,-15.07 4.58,-3.92 10.9,-7.25 18.94,-9.97l23.31 -7.98 0 -16.17c0,-8.46 -2.77,-12.7 -8.29,-12.7 -5.04,0 -7.56,3.42 -7.56,10.29l0 9.44 -36.53 0 -0.11 -2.15c0,-0.87 0,-1.87 0,-2.99 0,-15.67 3.69,-26.79 11.08,-33.32 7.38,-6.55 19.08,-9.82 35.11,-9.82 8.4,0 15.92,1.49 22.57,4.45 6.65,2.99 11.91,7.38 15.79,13.19 3.89,5.81 5.83,12.98 5.83,21.51l0 119.99 -37.37 0 0 -18.69c-1.82,6.58 -4.83,11.62 -9.02,15.11 -4.2,3.5 -9,5.25 -14.38,5.25z"/>
  <path class="fil1" d="M411.02 514.14l0 1.62c3.52,0.08 6.5,-1.73 7.79,-4.86 1.21,-2.8 1.81,-5.84 1.81,-9.05l0 -46.29 -2.24 0.91c-5.35,2.17 -9.59,4.92 -12.67,8.33 -3.23,3.6 -4.72,8.72 -4.72,15.11l0 20.26c0.01,4.81 0.69,8.56 2.33,11.31 1.61,2.77 4.44,4.32 7.7,4.28l0 -3.25c-2.36,-0.05 -3.72,-0.82 -4.91,-2.7 -1.16,-1.91 -1.87,-5.15 -1.86,-9.64l0 -20.26c0,-5.92 1.37,-10.14 3.88,-12.92 2.66,-2.95 6.46,-5.48 11.47,-7.52l-0.6 -1.5 -1.64 0 0 43.88c0,2.81 -0.51,5.37 -1.54,7.75 -0.96,2.03 -2.17,2.82 -4.8,2.91l0 1.63zm-14.8 29.17l0 -1.63c-8.52,0 -14.74,-1.96 -18.92,-5.67 -4.3,-3.82 -7.27,-9.03 -8.89,-15.85 -1.65,-6.92 -2.48,-14.81 -2.48,-23.67 0,-9.47 0.94,-17.18 2.76,-23.08 1.82,-5.86 4.87,-10.58 9.21,-14.3 4.37,-3.74 10.5,-7 18.42,-9.67l0.02 -0.01 24.39 -8.36 0 -17.32c-0.01,-4.41 -0.7,-7.86 -2.34,-10.41 -1.63,-2.58 -4.41,-3.96 -7.58,-3.92 -2.87,-0.02 -5.42,1.07 -6.99,3.24 -1.56,2.15 -2.19,5.06 -2.2,8.68l0 7.81 -33.35 0 -0.03 -0.59 -1.63 0.07 1.63 0c0,-0.87 0,-1.87 0,-2.99 0,-15.45 3.65,-26.03 10.53,-32.11 6.92,-6.15 18.21,-9.4 34.03,-9.4 8.21,0 15.49,1.45 21.9,4.32 6.4,2.87 11.4,7.04 15.11,12.6 3.68,5.49 5.55,12.31 5.55,20.6l0 118.36 -34.11 0 0 -29.05 -3.2 11.55c-1.76,6.35 -4.6,11.06 -8.5,14.3 -3.94,3.27 -8.3,4.87 -13.33,4.87l0 3.26c5.74,0.01 10.96,-1.9 15.41,-5.63 4.51,-3.74 7.68,-9.11 9.56,-15.93l-1.57 -0.43 -1.63 0 0 20.32 40.63 0 0 -121.62c0.01,-8.77 -2.01,-16.3 -6.1,-22.42 -4.05,-6.06 -9.58,-10.67 -16.49,-13.76 -6.88,-3.08 -14.64,-4.61 -23.23,-4.61 -16.23,0.02 -28.35,3.3 -36.19,10.24 -7.89,7.01 -11.63,18.64 -11.63,34.54 0,1.12 0,2.12 0,2.99l0 0.04 0.11 2.19 0.08 1.55 39.71 0 0 -11.07c-0.01,-3.24 0.61,-5.48 1.57,-6.75 0.95,-1.27 2.19,-1.89 4.36,-1.91 2.35,0.04 3.72,0.77 4.85,2.44 1.12,1.69 1.82,4.57 1.81,8.63l0 15 -22.2 7.6 0 0c-8.18,2.78 -14.68,6.18 -19.48,10.28 -4.82,4.12 -8.24,9.44 -10.21,15.82 -1.96,6.36 -2.9,14.35 -2.9,24.04 0,9.07 0.85,17.2 2.56,24.43 1.74,7.31 5.03,13.21 9.9,17.52 4.99,4.41 12.09,6.5 21.08,6.5l0 -1.63z"/>
  <path class="fil3" d="M504.32 541.64l0 -157.47 36.74 0 0 18.26c1.68,-6.43 4.54,-11.35 8.61,-14.79 4.05,-3.42 10,-5.14 17.84,-5.14 6.3,0 11.67,1.45 16.11,4.35 4.45,2.92 7.58,6.74 9.4,11.5 2.87,-5.18 6.24,-9.11 10.13,-11.81 3.88,-2.69 9.43,-4.04 16.63,-4.04 8.75,0 15.49,1.87 20.21,5.61 4.72,3.75 8.02,8.93 9.87,15.54 1.85,6.61 2.78,14.26 2.78,22.94l0 115.05 -37.47 0 0 -115.68c0,-10.15 -2.59,-15.22 -7.77,-15.22 -2.73,0 -4.83,0.93 -6.3,2.78 -1.47,1.85 -2.48,4.15 -3.04,6.87 -0.57,2.73 -0.84,5.47 -0.84,8.19l0 113.06 -37.48 0 0 -115.68c0,-3.3 -0.4,-6.58 -1.2,-9.87 -0.81,-3.29 -2.85,-4.94 -6.15,-4.94 -2.8,0 -4.97,1.03 -6.5,3.05 -1.55,2.03 -2.59,4.53 -3.15,7.51 -0.56,2.98 -0.84,5.89 -0.84,8.76l0 111.17 -37.58 0z"/>
  <path class="fil1" d="M504.32 541.64l1.63 0 0 -155.84 33.48 0 0 29.32 3.2 -12.27c1.62,-6.19 4.34,-10.79 8.09,-13.97 3.64,-3.08 9.17,-4.75 16.79,-4.75 6.05,0 11.07,1.39 15.22,4.09 4.19,2.74 7.06,6.27 8.77,10.71l1.25 3.26 1.69 -3.05c2.78,-5.01 6,-8.74 9.64,-11.27 3.48,-2.41 8.69,-3.74 15.7,-3.74 8.53,0 14.88,1.82 19.2,5.26 4.43,3.52 7.53,8.35 9.32,14.7 1.8,6.43 2.71,13.93 2.71,22.5l0 113.42 -34.21 0 0 -114.05c-0.01,-5.21 -0.64,-9.22 -2.13,-12.17 -1.43,-2.94 -4.12,-4.74 -7.27,-4.68 -3.09,-0.02 -5.8,1.13 -7.58,3.4 -1.65,2.08 -2.76,4.63 -3.36,7.56 -0.58,2.83 -0.87,5.67 -0.87,8.51l0 111.43 -34.22 0 0 -114.05c0,-3.42 -0.42,-6.85 -1.25,-10.26 -0.81,-3.82 -3.86,-6.3 -7.73,-6.18 -3.18,-0.02 -5.99,1.26 -7.8,3.7 -1.72,2.25 -2.86,5.01 -3.45,8.19 -0.58,3.06 -0.87,6.09 -0.87,9.06l0 109.54 -35.95 0 0 1.63 1.63 0 -1.63 0 0 1.63 39.21 0 0 -112.8c0,-2.76 0.26,-5.58 0.8,-8.46 0.53,-2.78 1.49,-5.03 2.85,-6.83 1.27,-1.61 2.8,-2.36 5.21,-2.4 2.72,0.13 3.75,0.95 4.56,3.69 0.78,3.17 1.16,6.33 1.16,9.49l0 117.31 40.74 0 0 -114.69c0,-2.62 0.26,-5.24 0.8,-7.86 0.52,-2.52 1.44,-4.56 2.73,-6.19 1.17,-1.45 2.65,-2.14 5.02,-2.17 2.03,0.06 3.22,0.79 4.38,2.92 1.1,2.14 1.77,5.74 1.76,10.68l0 117.31 40.73 0 0 -116.68c0,-8.8 -0.94,-16.59 -2.85,-23.37 -1.91,-6.89 -5.4,-12.41 -10.42,-16.38 -5.12,-4.06 -12.25,-5.98 -21.22,-5.98 -7.39,0.02 -13.27,1.38 -17.56,4.35 -4.13,2.86 -7.66,7 -10.63,12.34l1.43 0.8 1.52 -0.59c-1.94,-5.06 -5.32,-9.2 -10.03,-12.27 -4.74,-3.1 -10.46,-4.63 -17,-4.63 -8.06,0 -14.42,1.76 -18.9,5.54 -4.36,3.69 -7.39,8.96 -9.13,15.63l1.58 0.4 1.62 0 0 -19.88 -39.99 0 0 160.72 1.63 0 0 -1.63z"/>
  <path class="fil3" d="M667.34 541.64l0 -157.47 38.21 0 0 17.54c1.82,-6.08 5.04,-10.85 9.65,-14.28 4.63,-3.43 10.43,-5.14 17.43,-5.14l0 31.39c-3.08,0 -6.75,0.32 -11.02,0.99 -4.27,0.66 -8.01,1.57 -11.24,2.73 -3.21,1.16 -4.82,2.43 -4.82,3.83l0 120.41 -38.21 0z"/>
  <path class="fil1" d="M667.34 541.64l1.63 0 0 -155.84 34.95 0 0 27.04 3.19 -10.67c1.74,-5.8 4.74,-10.21 9.07,-13.44 4.29,-3.18 9.71,-4.81 16.45,-4.81l0 -1.63 -1.63 0 0 31.39 1.63 0 0 -1.63c-3.2,0 -6.95,0.34 -11.27,1.01 -4.35,0.68 -8.19,1.61 -11.53,2.81 -1.71,0.61 -3.06,1.27 -4.09,2.08 -1.01,0.78 -1.82,1.91 -1.82,3.28l0 118.78 -36.58 0 0 1.63 1.63 0 -1.63 0 0 1.63 39.83 0 0 -122.04 0.59 -0.73c0.58,-0.47 1.65,-1.03 3.17,-1.57 3.09,-1.12 6.74,-2 10.93,-2.64 4.21,-0.67 7.81,-0.99 10.77,-0.99l1.63 0 0 -34.64 -1.63 0c-7.26,0 -13.45,1.79 -18.39,5.46 -4.92,3.65 -8.35,8.76 -10.25,15.12l1.56 0.47 1.62 0 0 -19.16 -41.46 0 0 160.72 1.63 0 0 -1.63z"/>
  <path class="fil3" d="M741.66 541.64l0 -157.47 37.58 0 0 157.47 -37.58 0zm0 -167.12l0 -31.28 37.58 0 0 31.28 -37.58 0z"/>
  <path class="fil1" d="M741.66 541.64l1.63 0 0 -155.84 34.32 0 0 154.21 -35.95 0 0 1.63 1.63 0 -1.63 0 0 1.63 39.2 0 0 -160.72 -40.83 0 0 160.72 1.63 0 0 -1.63zm0 -167.12l1.63 0 0 -29.65 34.32 0 0 28.02 -35.95 0 0 1.63 1.63 0 -1.63 0 0 1.62 39.2 0 0 -34.54 -40.83 0 0 34.54 1.63 0 0 -1.62z"/>
  <path class="fil3" d="M826.47 543.31c-10.14,0 -16.99,-2.15 -20.52,-6.45 -3.53,-4.3 -5.3,-10.9 -5.3,-19.78l0 -98.15 -10.6 0 0 -28.67 10.6 0 0 -33.38 36.53 0 0 33.38 10.6 0 0 28.67 -10.6 0 0 89.33c0,2.58 0.42,4.41 1.26,5.45 0.84,1.05 2.45,1.58 4.83,1.58 1.68,0 3.19,-0.14 4.51,-0.43l0 25.61c-0.84,0.29 -3.46,0.83 -7.87,1.64 -4.41,0.8 -8.89,1.2 -13.44,1.2z"/>
  <path class="fil1" d="M826.47 543.31l0 -1.63c-9.95,0.02 -16.28,-2.16 -19.26,-5.86 -3.18,-3.86 -4.94,-10.06 -4.93,-18.74l0 -99.78 -10.6 0 0 -25.41 10.6 0 0 -33.38 33.27 0 0 33.38 10.61 0 0 25.41 -10.61 0 0 90.96c0.02,2.74 0.39,4.88 1.62,6.48 1.37,1.65 3.52,2.16 6.1,2.18 1.77,0 3.38,-0.15 4.85,-0.46l-0.34 -1.6 -1.62 0 0 25.61 1.62 0 -0.51 -1.53c-0.59,0.2 -3.29,0.78 -7.65,1.57 -4.31,0.78 -8.7,1.17 -13.15,1.17l0 3.26c4.65,0 9.22,-0.41 13.73,-1.23 4.46,-0.82 7,-1.33 8.1,-1.68l1.11 -0.38 0 -28.79 -1.96 0.42c-1.2,0.25 -2.59,0.37 -4.18,0.37 -2.18,0.01 -3.25,-0.51 -3.56,-0.96 -0.45,-0.51 -0.92,-2.01 -0.9,-4.43l0 -87.71 10.6 0 0 -31.91 -10.6 0 0 -33.38 -39.79 0 0 33.38 -10.6 0 0 31.91 10.6 0 0 96.53c0.01,9.08 1.79,16.06 5.67,20.81 4.08,4.92 11.44,7.04 21.78,7.05l0 -1.63z"/>
  <path class="fil3" d="M442.86 514.14c3.08,0 5.18,-1.3 6.3,-3.9 1.12,-2.58 1.68,-5.38 1.68,-8.38l0 -43.89c-5.18,2.1 -9.21,4.74 -12.08,7.93 -2.86,3.18 -4.3,7.85 -4.3,14.01l0 20.26c0,9.31 2.8,13.97 8.4,13.97zm-14.8 29.17c-8.75,0 -15.42,-2.02 -20,-6.09 -4.58,-4.05 -7.72,-9.62 -9.4,-16.68 -1.67,-7.07 -2.51,-15.09 -2.51,-24.05 0,-9.58 0.94,-17.43 2.83,-23.55 1.89,-6.14 5.13,-11.15 9.71,-15.07 4.58,-3.92 10.9,-7.25 18.95,-9.97l23.3 -7.98 0 -16.17c0,-8.46 -2.76,-12.7 -8.29,-12.7 -5.04,0 -7.56,3.42 -7.56,10.29l0 9.44 -36.53 0 -0.1 -2.15c0,-0.87 0,-1.87 0,-2.99 0,-15.67 3.69,-26.79 11.07,-33.32 7.38,-6.55 19.09,-9.82 35.12,-9.82 8.39,0 15.91,1.49 22.56,4.47 6.65,2.97 11.92,7.36 15.8,13.17 3.89,5.81 5.82,12.98 5.82,21.51l0 119.99 -37.37 0 0 -18.69c-1.81,6.58 -4.82,11.62 -9.02,15.11 -4.2,3.5 -8.99,5.25 -14.38,5.25z"/>
  <path class="fil1" d="M442.86 514.14l0 1.62c3.52,0.08 6.5,-1.71 7.79,-4.86 1.21,-2.8 1.82,-5.84 1.82,-9.04l0 -46.3 -2.25 0.91c-5.34,2.17 -9.58,4.92 -12.67,8.33 -3.23,3.6 -4.72,8.72 -4.72,15.11l0 20.26c0.01,4.81 0.7,8.56 2.33,11.31 1.62,2.77 4.45,4.32 7.7,4.28l0 -3.25c-2.35,-0.05 -3.72,-0.82 -4.9,-2.7 -1.17,-1.91 -1.88,-5.15 -1.87,-9.64l0 -20.26c0,-5.92 1.38,-10.14 3.88,-12.92 2.66,-2.95 6.46,-5.48 11.48,-7.52l-0.61 -1.5 -1.63 0 0 43.89c0,2.8 -0.52,5.36 -1.55,7.74 -0.95,2.03 -2.17,2.82 -4.8,2.91l0 1.63zm-14.8 29.17l0 -1.63c-8.51,0 -14.74,-1.96 -18.92,-5.67 -4.3,-3.82 -7.27,-9.03 -8.89,-15.85 -1.64,-6.92 -2.48,-14.81 -2.48,-23.67 0,-9.47 0.94,-17.18 2.77,-23.08 1.81,-5.86 4.87,-10.58 9.21,-14.3 4.36,-3.74 10.5,-7 18.41,-9.67l0.03 -0.01 24.38 -8.36 0 -17.32c-0.01,-4.41 -0.69,-7.86 -2.34,-10.41 -1.63,-2.58 -4.42,-3.96 -7.58,-3.92 -2.88,-0.02 -5.42,1.07 -6.98,3.24 -1.56,2.15 -2.2,5.06 -2.2,8.68l0 7.82 -33.36 0 -0.03 -0.6 -1.62 0.07 1.62 0c0,-0.87 0,-1.87 0,-2.99 0,-15.45 3.66,-26.03 10.53,-32.11 6.92,-6.15 18.21,-9.4 34.04,-9.4 8.2,0 15.48,1.45 21.9,4.32 6.39,2.87 11.39,7.04 15.11,12.6 3.67,5.49 5.55,12.31 5.55,20.6l0 118.36 -34.11 0 0 -29.05 -3.2 11.55c-1.76,6.35 -4.61,11.06 -8.5,14.3 -3.95,3.27 -8.31,4.87 -13.34,4.87l0 3.26c5.74,0.01 10.96,-1.89 15.42,-5.63 4.5,-3.74 7.67,-9.11 9.56,-15.93l-1.58 -0.43 -1.62 0 0 20.32 40.62 0 0 -121.62c0.01,-8.77 -2,-16.3 -6.1,-22.42 -4.05,-6.06 -9.58,-10.67 -16.48,-13.76 -6.89,-3.08 -14.65,-4.61 -23.23,-4.61 -16.24,0.02 -28.35,3.3 -36.2,10.24 -7.89,7.01 -11.62,18.64 -11.62,34.54 0,1.12 0,2.12 0,2.99l0 0.04 0.11 2.19 0.07 1.55 39.71 0 0 -11.07c-0.01,-3.24 0.62,-5.48 1.57,-6.75 0.96,-1.27 2.19,-1.87 4.36,-1.91 2.36,0.04 3.72,0.77 4.86,2.44 1.11,1.69 1.81,4.57 1.8,8.63l0 15 -22.2 7.61 0.01 -0.01c-8.19,2.78 -14.68,6.18 -19.49,10.28 -4.82,4.12 -8.24,9.44 -10.2,15.82 -1.96,6.36 -2.91,14.35 -2.91,24.04 0,9.07 0.85,17.2 2.56,24.43 1.74,7.31 5.03,13.21 9.91,17.52 4.98,4.41 12.08,6.5 21.07,6.5l0 -1.63z"/>
  <path class="fil3" d="M403.44 568.67l0 13.39 6.68 0 2.6 -0.52 2.12 -1.44 1.43 -2.13 0.53 -2.6 -0.53 -2.6 -1.43 -2.13 -2.12 -1.44 -2.6 -0.53 -6.68 0zm0 26.75l-6.7 0 0 -33.43 13.38 0c1.23,0 2.41,0.16 3.55,0.47 1.13,0.32 2.2,0.77 3.18,1.36l2.71 2.1 2.1 2.71c0.58,1 1.03,2.05 1.35,3.19 0.32,1.14 0.48,2.32 0.48,3.55 0,1.15 -0.15,2.27 -0.43,3.35 -0.29,1.09 -0.71,2.13 -1.24,3.1l-1.97 2.72 -2.62 2.14 3.72 8.74 -7.11 0 -2.92 -6.74 -7.48 0.05 0 6.69z"/>
  <path class="fil3" d="M440.11 576.19l-0.87 -0.21 -0.9 -0.05 -2.46 0.47 -2 1.37 -1.35 2.14c-0.32,0.82 -0.48,1.76 -0.48,2.8l0.03 0.79 0.12 0.91 0.2 0.87 0.3 0.75 7.41 -9.84zm-3.26 13.12l0.74 0.15 0.75 0.04 1.8 -0.26 1.61 -0.73 1.36 -1.17 0.97 -1.53 4.66 4.69 -2.04 2.26 -2.49 1.7 -2.83 1.07c-0.98,0.24 -2,0.35 -3.04,0.35 -1.76,0 -3.41,-0.32 -4.95,-0.97 -1.55,-0.66 -2.9,-1.56 -4.06,-2.73 -1.16,-1.16 -2.07,-2.56 -2.74,-4.16 -0.67,-1.61 -1,-3.38 -1,-5.31 0,-1.98 0.33,-3.78 1,-5.41 0.67,-1.63 1.58,-3.02 2.74,-4.17 1.16,-1.15 2.51,-2.04 4.06,-2.69 1.54,-0.63 3.19,-0.95 4.95,-0.95 1.04,0 2.06,0.12 3.06,0.38l2.83 1.07 2.51 1.71 2.05 2.27 -11.94 14.39z"/>
  <path class="fil3" d="M459.59 563.67l-0.34 1.65 -0.92 1.34 -1.35 0.91 -1.64 0.33 -1.69 -0.33 -1.36 -0.91 -0.92 -1.34 -0.35 -1.65 0.35 -1.65 0.92 -1.35 1.36 -0.91 1.69 -0.34 1.64 0.34 1.35 0.91 0.92 1.35 0.34 1.65zm-17.1 41.26l0 -6.4 3.52 0.04 2.38 -0.52 1.9 -1.41 1.27 -2.01 0.47 -2.41 0 -21.78 6.5 0 0 21.78 -0.04 0c-0.02,1.17 -0.18,2.3 -0.48,3.39 -0.3,1.09 -0.73,2.1 -1.29,3.04l-2.01 2.56 -2.58 1.99c-0.93,0.55 -1.94,0.98 -3.02,1.29 -1.09,0.29 -2.21,0.44 -3.37,0.44l-3.25 0z"/>
  <path class="fil3" d="M481.69 592.51l-1.65 1.32 -1.83 1.07 -1.97 0.72 -2.06 0.26c-1.54,0 -2.98,-0.26 -4.34,-0.8 -1.35,-0.55 -2.53,-1.32 -3.55,-2.33 -1.02,-1 -1.82,-2.22 -2.4,-3.67 -0.59,-1.43 -0.88,-3.04 -0.88,-4.83l0 -13.81 6.34 0 0 13.81 0.39 2.25 1.04 1.67 1.52 1.03 1.88 0.34 1.86 -0.46 1.52 -1.19 1.03 -1.69 0.37 -1.95 0 -13.81 6.37 0 0 24.98 -1.54 0 -2.1 -2.91z"/>
  <polygon class="fil3" points="497.26,595.42 487.75,570.44 495.01,570.44 500.46,586.03 505.89,570.44 513.17,570.44 503.66,595.42 "/>
  <path class="fil3" d="M528.07 576.19l-0.88 -0.21 -0.9 -0.05 -2.45 0.47 -2.01 1.37 -1.34 2.14c-0.33,0.82 -0.49,1.76 -0.49,2.8l0.04 0.79 0.11 0.91 0.2 0.87 0.3 0.75 7.42 -9.84zm-3.26 13.12l0.74 0.15 0.74 0.04 1.8 -0.26 1.62 -0.73 1.35 -1.17 0.97 -1.53 4.66 4.69 -2.04 2.26 -2.49 1.7 -2.82 1.07c-0.99,0.24 -2,0.35 -3.05,0.35 -1.75,0 -3.4,-0.32 -4.95,-0.97 -1.55,-0.66 -2.9,-1.56 -4.06,-2.73 -1.16,-1.16 -2.07,-2.56 -2.74,-4.16 -0.66,-1.61 -1,-3.38 -1,-5.31 0,-1.98 0.34,-3.78 1,-5.41 0.67,-1.63 1.58,-3.02 2.74,-4.17 1.16,-1.15 2.51,-2.04 4.06,-2.69 1.55,-0.63 3.2,-0.95 4.95,-0.95 1.05,0 2.06,0.12 3.06,0.38l2.83 1.07 2.51 1.71 2.05 2.27 -11.93 14.39z"/>
  <path class="fil3" d="M546.3 595.42l-6.36 0 0 -24.98 1.54 0 2.09 2.44c1.03,-0.94 2.19,-1.66 3.49,-2.16 1.3,-0.51 2.66,-0.76 4.07,-0.76 1.52,0 2.96,0.29 4.31,0.87 1.36,0.59 2.54,1.38 3.55,2.41 1.01,1.02 1.8,2.21 2.39,3.57 0.58,1.35 0.87,2.8 0.87,4.34l0 14.27 -6.37 0 0 -14.27 -0.37 -1.85 -1.02 -1.53 -1.52 -1.02 -1.84 -0.38 -1.89 0.38 -1.54 1.02 -1.03 1.53 -0.37 1.85 0 14.27z"/>
  <path class="fil3" d="M584.55 582.71l-0.51 -2.53 -1.36 -2.17 -2.02 -1.52 -2.46 -0.56 -2.46 0.44 -2 1.31 -1.35 2.13c-0.32,0.84 -0.48,1.82 -0.48,2.9 0,1.09 0.16,2.05 0.48,2.9l1.35 2.14 2 1.31 2.46 0.44 2.46 -0.58 2.02 -1.51 1.36 -2.16 0.51 -2.54zm6.4 12.71l-1.53 0 -2.48 -3.43 -1.92 1.53 -2.14 1.24 -2.29 0.83 -2.39 0.29c-1.76,0 -3.41,-0.29 -4.96,-0.88 -1.54,-0.59 -2.89,-1.45 -4.05,-2.58 -1.16,-1.12 -2.07,-2.5 -2.74,-4.13 -0.67,-1.64 -1,-3.49 -1,-5.58 0,-1.94 0.33,-3.72 1,-5.35 0.67,-1.62 1.58,-3.03 2.74,-4.18 1.16,-1.16 2.51,-2.07 4.05,-2.72 1.55,-0.65 3.2,-0.97 4.96,-0.97l2.4 0.31 2.31 0.84 2.13 1.26 1.9 1.55 2.48 -2.95 1.53 0 0 24.92z"/>
  <path class="fil3" d="M608.33 595.42c-1.54,0 -2.99,-0.3 -4.34,-0.88 -1.35,-0.57 -2.54,-1.38 -3.56,-2.4 -1.02,-1.01 -1.82,-2.2 -2.4,-3.55 -0.58,-1.36 -0.87,-2.8 -0.87,-4.34l0 -7.41 -3.1 0 0 -6.34 3.1 0 0 -9.98 6.34 0 0 9.98 9.65 0 0 6.34 -9.65 0 0 7.41 0.37 1.88 1.03 1.53 1.54 1.03 1.89 0.39 4.82 0 0 6.34 -4.82 0z"/>
  <path class="fil3" d="M629.92 576.19l-0.88 -0.21 -0.89 -0.05 -2.46 0.47 -2.01 1.37 -1.34 2.14c-0.33,0.82 -0.49,1.76 -0.49,2.8l0.03 0.79 0.12 0.91 0.2 0.87 0.3 0.75 7.42 -9.84zm-3.27 13.12l0.75 0.15 0.75 0.04 1.79 -0.26 1.62 -0.73 1.35 -1.17 0.97 -1.53 4.66 4.69 -2.03 2.26 -2.5 1.7 -2.82 1.07c-0.99,0.24 -2,0.35 -3.04,0.35 -1.76,0 -3.41,-0.32 -4.96,-0.97 -1.55,-0.66 -2.9,-1.56 -4.05,-2.73 -1.16,-1.16 -2.08,-2.56 -2.75,-4.16 -0.67,-1.61 -1,-3.38 -1,-5.31 0,-1.98 0.33,-3.78 1,-5.41 0.67,-1.63 1.59,-3.02 2.75,-4.17 1.15,-1.15 2.5,-2.04 4.05,-2.69 1.55,-0.63 3.2,-0.95 4.96,-0.95 1.04,0 2.05,0.12 3.05,0.38l2.83 1.07 2.51 1.71 2.05 2.27 -11.94 14.39z"/>
  <path class="fil3" d="M661.16 604.93l0 -6.4 3.55 0.04 1.79 -0.3 1.6 -0.85 1.3 -1.26 0.9 -1.6 -2.13 0.89 -2.18 0.43c-1.54,0 -2.98,-0.26 -4.34,-0.8 -1.35,-0.55 -2.54,-1.32 -3.55,-2.33 -1.02,-1 -1.82,-2.22 -2.4,-3.67 -0.59,-1.43 -0.88,-3.04 -0.88,-4.83l0 -13.81 6.34 0 0 13.81 0.39 2.32 1.04 1.65 1.52 1 1.88 0.32 1.85 -0.46 1.53 -1.19 1.03 -1.69 0.37 -1.95 0 -13.81 6.41 0 0 21.84c-0.02,1.75 -0.36,3.4 -1.02,4.94 -0.67,1.53 -1.59,2.88 -2.75,4.03 -1.15,1.15 -2.5,2.07 -4.04,2.73 -1.54,0.67 -3.19,1 -4.94,1l-3.27 -0.05z"/>
  <path class="fil3" d="M699.75 582.71l-0.5 -2.78 -1.36 -2.15 -2.02 -1.38 -2.46 -0.47 -2.46 0.47 -2.01 1.38 -1.34 2.15 -0.49 2.78 0.49 2.68 1.34 2.15 2.01 1.43 2.46 0.53 2.46 -0.5 2.02 -1.37 1.36 -2.14 0.5 -2.78zm6.41 0c0,1.87 -0.33,3.61 -1,5.22 -0.66,1.6 -1.58,2.99 -2.73,4.18 -1.15,1.16 -2.49,2.09 -4.04,2.76 -1.55,0.68 -3.21,1.01 -4.98,1.01 -1.76,0 -3.41,-0.33 -4.96,-1.01 -1.54,-0.67 -2.89,-1.6 -4.05,-2.76 -1.16,-1.19 -2.07,-2.58 -2.75,-4.18 -0.66,-1.61 -0.99,-3.35 -0.99,-5.22 0,-1.9 0.33,-3.65 0.99,-5.26 0.68,-1.62 1.59,-3.02 2.75,-4.19 1.16,-1.17 2.51,-2.09 4.05,-2.76 1.55,-0.68 3.2,-1.01 4.96,-1.01 1.77,0 3.43,0.32 4.98,0.95 1.55,0.62 2.89,1.52 4.04,2.68 1.15,1.16 2.07,2.55 2.73,4.17 0.67,1.63 1,3.43 1,5.42z"/>
  <path class="fil3" d="M728.03 592.51l-1.64 1.32 -1.83 1.07 -1.97 0.72 -2.07 0.26c-1.53,0 -2.98,-0.26 -4.33,-0.8 -1.35,-0.55 -2.54,-1.32 -3.55,-2.33 -1.02,-1 -1.83,-2.22 -2.41,-3.67 -0.58,-1.43 -0.87,-3.04 -0.87,-4.83l0 -13.81 6.34 0 0 13.81 0.39 2.25 1.04 1.67 1.52 1.03 1.87 0.34 1.86 -0.46 1.53 -1.19 1.03 -1.69 0.37 -1.95 0 -13.81 6.37 0 0 24.98 -1.55 0 -2.1 -2.91z"/>
  <path class="fil3" d="M742.89 595.42l-6.36 0 0 -24.98 1.53 0 2.1 2.96c1.03,-0.92 2.19,-1.65 3.5,-2.14 1.31,-0.51 2.65,-0.76 4.06,-0.76l5.62 0 0 6.34 -5.62 0 -1.89 0.37 -1.54 1.03 -1.03 1.53 -0.37 1.89 0 13.76z"/>
  <polygon class="fil3" points="793.75,595.42 770.33,595.42 770.33,561.99 777.03,561.99 777.03,588.73 793.75,588.73 "/>
  <path class="fil3" d="M802.96 595.42l-6.41 0 0 -24.98 6.41 0 0 24.98zm1.09 -31.75l-0.33 1.65 -0.93 1.34 -1.36 0.91 -1.67 0.33 -1.67 -0.33 -1.35 -0.91 -0.91 -1.34 -0.34 -1.65 0.34 -1.65 0.91 -1.35 1.35 -0.91 1.67 -0.34 1.67 0.34 1.36 0.91 0.93 1.35 0.33 1.65z"/>
  <path class="fil3" d="M815.9 595.42l-6.37 0 0 -18.63 -3.1 0 0 -6.35 3.1 0 0 -1.18c0,-1.54 0.29,-2.99 0.87,-4.33 0.59,-1.36 1.39,-2.54 2.41,-3.54 1.01,-1 2.2,-1.8 3.55,-2.38 1.35,-0.58 2.8,-0.87 4.34,-0.87l4.78 0 0 6.34 -4.78 0 -1.9 0.36 -1.52 1.01 -1.01 1.51 -0.37 1.9 0 1.18 7.81 0 0 6.35 -7.81 0 0 18.63z"/>
  <path class="fil3" d="M839.45 576.19l-0.88 -0.21 -0.9 -0.05 -2.45 0.47 -2.01 1.37 -1.34 2.14c-0.33,0.82 -0.49,1.76 -0.49,2.8l0.04 0.79 0.11 0.91 0.2 0.87 0.3 0.75 7.42 -9.84zm-3.26 13.12l0.74 0.15 0.74 0.04 1.8 -0.26 1.62 -0.73 1.35 -1.17 0.97 -1.53 4.66 4.69 -2.04 2.26 -2.49 1.7 -2.83 1.07c-0.98,0.24 -1.99,0.35 -3.04,0.35 -1.75,0 -3.41,-0.32 -4.95,-0.97 -1.55,-0.66 -2.9,-1.56 -4.06,-2.73 -1.15,-1.16 -2.07,-2.56 -2.74,-4.16 -0.66,-1.61 -1,-3.38 -1,-5.31 0,-1.98 0.34,-3.78 1,-5.41 0.67,-1.63 1.59,-3.02 2.74,-4.17 1.16,-1.15 2.51,-2.04 4.06,-2.69 1.54,-0.63 3.2,-0.95 4.95,-0.95 1.05,0 2.07,0.12 3.06,0.38l2.83 1.07 2.51 1.71 2.05 2.27 -11.93 14.39z"/>
 </g>
</svg>
