<?xml version="1.0" encoding="UTF-8"?>
<!DOCTYPE svg PUBLIC "-//W3C//DTD SVG 1.1//EN" "http://www.w3.org/Graphics/SVG/1.1/DTD/svg11.dtd">
<!-- Creator: CorelDRAW 2017 -->
<svg xmlns="http://www.w3.org/2000/svg" xml:space="preserve" width="702px" height="218px" version="1.1" style="shape-rendering:geometricPrecision; text-rendering:geometricPrecision; image-rendering:optimizeQuality; fill-rule:evenodd; clip-rule:evenodd"
viewBox="0 0 671.02 208.06"
 xmlns:xlink="http://www.w3.org/1999/xlink">
 <defs>
  <style type="text/css">
   <![CDATA[
    .fil0 {fill:#14693C;fill-rule:nonzero}
    .fil2 {fill:#EA5E20;fill-rule:nonzero}
    .fil1 {fill:#FEFEFE;fill-rule:nonzero}
   ]]>
  </style>
 </defs>
 <g id="Layer_x0020_1">
  <metadata id="CorelCorpID_0Corel-Layer"/>
  <polygon class="fil0" points="1.29,158.02 1.29,12.07 30.15,12.07 30.15,70.53 43.75,12.07 73.1,12.07 56.76,78.91 76.5,158.02 46.23,158.02 30.31,87.36 30.31,158.02 "/>
  <polygon class="fil1" points="1.29,158.02 2.58,158.02 2.58,13.36 28.86,13.36 28.86,81.74 44.77,13.36 71.46,13.36 55.44,78.91 74.86,156.74 47.26,156.74 29.03,75.81 29.03,156.74 1.29,156.74 1.29,158.02 2.58,158.02 1.29,158.02 1.29,159.31 31.6,159.31 31.6,98.92 45.2,159.31 78.15,159.31 58.09,78.91 74.74,10.79 42.72,10.79 31.43,59.34 31.43,10.79 0,10.79 0,159.31 1.29,159.31 "/>
  <path class="fil0" d="M115.31 136.3c2.43,0 4.09,-1.03 4.97,-3.08 0.89,-2.04 1.33,-4.25 1.33,-6.63l0 -34.66c-4.09,1.66 -7.27,3.74 -9.53,6.26 -2.27,2.51 -3.41,6.21 -3.41,11.07l0 16c0,7.36 2.22,11.04 6.64,11.04l0 0zm-11.69 23.05c-6.92,0 -12.18,-1.61 -15.8,-4.81 -3.62,-3.2 -6.09,-7.6 -7.43,-13.19 -1.32,-5.58 -1.98,-11.91 -1.98,-18.99 0,-7.57 0.75,-13.77 2.24,-18.61 1.49,-4.84 4.04,-8.81 7.67,-11.9 3.62,-3.09 8.61,-5.73 14.97,-7.88l18.41 -6.3 0 -12.77c0,-6.69 -2.19,-10.04 -6.56,-10.04 -3.98,0 -5.97,2.71 -5.97,8.13l0 7.46 -28.86 0 -0.08 -1.7c0,-0.69 0,-1.48 0,-2.36 0,-12.38 2.92,-21.17 8.75,-26.33 5.83,-5.17 15.08,-7.75 27.74,-7.75 6.63,0 12.58,1.17 17.83,3.52 5.25,2.35 9.41,5.82 12.48,10.41 3.07,4.59 4.6,10.26 4.6,17l0 94.78 -29.52 0 0 -14.76c-1.44,5.2 -3.81,9.18 -7.13,11.94 -3.32,2.77 -7.11,4.15 -11.36,4.15l0 0z"/>
  <path class="fil1" d="M115.31 136.3l0 1.28c2.78,0.06 5.14,-1.36 6.15,-3.84 0.97,-2.21 1.44,-4.61 1.44,-7.15l0 -36.57 -1.77 0.72c-4.23,1.71 -7.58,3.89 -10.01,6.59 -2.56,2.84 -3.73,6.89 -3.73,11.93l0 16c0.01,3.81 0.55,6.76 1.84,8.94 1.28,2.19 3.51,3.42 6.08,3.38l0 -2.57c-1.86,-0.03 -2.93,-0.64 -3.88,-2.13 -0.92,-1.51 -1.48,-4.07 -1.47,-7.62l0 -16c0.01,-4.67 1.09,-8.01 3.07,-10.21 2.1,-2.33 5.1,-4.33 9.06,-5.93l-0.48 -1.19 -1.29 0 0 34.66c0,2.22 -0.4,4.25 -1.21,6.12 -0.76,1.61 -1.72,2.24 -3.8,2.3l0 1.29 0 0zm-11.69 23.05l0 -1.29c-6.73,0 -11.64,-1.55 -14.95,-4.48 -3.39,-3.01 -5.73,-7.14 -7.02,-12.52 -1.3,-5.47 -1.96,-11.7 -1.96,-18.7 0,-7.48 0.74,-13.57 2.19,-18.23 1.42,-4.63 3.84,-8.36 7.27,-11.3 3.45,-2.95 8.29,-5.53 14.54,-7.64l0.03 -0.01 19.26 -6.6 0 -13.68c-0.01,-3.49 -0.55,-6.22 -1.85,-8.23 -1.29,-2.03 -3.48,-3.12 -5.99,-3.1 -2.26,-0.02 -4.27,0.85 -5.51,2.56 -1.24,1.7 -1.74,4 -1.74,6.86l0 6.18 -26.35 0 -0.03 -0.48 -1.28 0.06 1.29 0c0,-0.69 0,-1.47 0,-2.36 0,-12.21 2.88,-20.56 8.32,-25.36 5.46,-4.87 14.38,-7.43 26.88,-7.43 6.48,0 12.23,1.14 17.3,3.41 5.05,2.27 9,5.56 11.94,9.95 2.9,4.34 4.38,9.73 4.38,16.28l0 93.5 -26.94 0 0 -22.95 -2.53 9.13c-1.39,5.01 -3.64,8.73 -6.72,11.29 -3.11,2.59 -6.56,3.85 -10.54,3.85l0 2.58c4.54,0.01 8.67,-1.51 12.19,-4.45 3.56,-2.96 6.06,-7.21 7.55,-12.59l-1.24 -0.34 -1.29 0 0 16.05 32.09 0 0 -96.07c0.01,-6.93 -1.58,-12.88 -4.81,-17.71 -3.2,-4.79 -7.58,-8.43 -13.03,-10.87 -5.44,-2.44 -11.57,-3.64 -18.35,-3.64 -12.82,0.01 -22.39,2.6 -28.59,8.08 -6.24,5.54 -9.19,14.73 -9.19,27.29 0,0.89 0,1.68 0,2.36l0 0.03 0.09 1.74 0.06 1.22 31.37 0 0 -8.75c-0.01,-2.56 0.49,-4.32 1.24,-5.33 0.76,-1 1.73,-1.49 3.44,-1.51 1.87,0.03 2.94,0.61 3.84,1.92 0.88,1.34 1.44,3.62 1.43,6.83l0 11.85 -17.57 6.02 0.03 -0.02c-6.46,2.19 -11.6,4.88 -15.39,8.12 -3.81,3.25 -6.51,7.46 -8.06,12.5 -1.55,5.02 -2.3,11.33 -2.3,18.99 0,7.16 0.67,13.59 2.03,19.29 1.37,5.78 3.97,10.45 7.82,13.85 3.93,3.49 9.55,5.14 16.65,5.14l0 -1.29z"/>
  <polygon class="fil0" points="163.07,158.02 193.26,158.02 193.26,12.08 163.07,12.08 "/>
  <polygon class="fil1" points="163.07,158.02 164.36,158.02 164.36,13.36 191.97,13.36 191.97,156.74 163.07,156.74 163.07,158.02 164.36,158.02 163.07,158.02 163.07,159.31 194.55,159.31 194.55,10.79 161.79,10.79 161.79,159.31 163.07,159.31 "/>
  <path class="fil0" d="M242.43 136.21c3.1,0 4.97,-1.54 5.6,-4.64 0.64,-3.09 0.95,-6.91 0.95,-11.44l0 -48.6c0,-4.59 -0.32,-8.42 -0.95,-11.49 -0.63,-3.06 -2.5,-4.6 -5.6,-4.6 -3.2,0 -5.18,1.56 -5.93,4.69 -0.74,3.13 -1.12,6.92 -1.12,11.4l0 48.6c0,4.47 0.38,8.27 1.12,11.4 0.75,3.12 2.73,4.68 5.93,4.68l0 0zm-37.23 42.55l0 -145.13 30.18 0 0 13.27c1.83,-4.59 4.36,-8.17 7.59,-10.74 3.24,-2.56 7.87,-3.85 13.9,-3.85 8.12,0 13.85,2.95 17.2,8.87 3.34,5.92 5.02,13.65 5.02,23.22l0 61.2c0,6.35 -0.9,12.1 -2.7,17.21 -1.79,5.11 -4.61,9.14 -8.46,12.1 -3.84,2.96 -8.86,4.44 -15.05,4.44 -8.07,0 -13.9,-4.86 -17.49,-14.59l0 34 -30.19 0 0 0z"/>
  <path class="fil1" d="M242.43 136.21l0 1.29c1.76,0 3.34,-0.46 4.54,-1.46 1.22,-1 1.97,-2.47 2.32,-4.21 0.66,-3.22 0.98,-7.11 0.98,-11.7l0 -48.6c0,-4.64 -0.32,-8.56 -0.98,-11.74 -0.35,-1.73 -1.11,-3.19 -2.32,-4.19 -1.21,-0.99 -2.78,-1.45 -4.54,-1.45 -3.64,-0.1 -6.43,2.11 -7.18,5.68 -0.77,3.26 -1.15,7.15 -1.15,11.7l0 48.6c0,4.55 0.38,8.44 1.15,11.7 0.75,3.56 3.55,5.77 7.18,5.67l0 -2.57c-2.77,-0.11 -3.93,-1.02 -4.68,-3.7 -0.71,-2.99 -1.08,-6.7 -1.08,-11.1l0 -48.6c0,-4.41 0.37,-8.11 1.08,-11.1 0.75,-2.68 1.91,-3.6 4.68,-3.7 1.35,0 2.25,0.32 2.91,0.86 0.65,0.54 1.15,1.38 1.43,2.72 0.61,2.95 0.93,6.69 0.93,11.22l0 48.6c0,4.46 -0.32,8.21 -0.93,11.18 -0.28,1.35 -0.78,2.2 -1.44,2.76 -0.65,0.53 -1.55,0.85 -2.9,0.86l0 1.28zm-37.23 42.55l1.29 0 0 -143.84 27.61 0 0 18.7 2.48 -6.24c1.76,-4.42 4.16,-7.8 7.19,-10.21 2.92,-2.32 7.24,-3.57 13.1,-3.57 7.83,0.03 12.94,2.73 16.08,8.21 3.2,5.66 4.86,13.17 4.85,22.59l0 61.2c0,6.24 -0.89,11.83 -2.62,16.78 -1.73,4.92 -4.4,8.72 -8.03,11.52 -3.58,2.74 -8.28,4.16 -14.27,4.16 -7.48,-0.04 -12.72,-4.29 -16.29,-13.76l-2.49 -6.74 0 39.91 -28.9 0 0 1.29 1.29 0 -1.29 0 0 1.28 31.47 0 0 -35.28 -1.28 0 -1.21 0.44c3.62,10 10.04,15.48 18.7,15.44 6.39,0 11.73,-1.54 15.84,-4.71 4.05,-3.11 7.02,-7.39 8.89,-12.7 1.85,-5.27 2.77,-11.16 2.77,-17.63l0 -61.2c0,-9.71 -1.7,-17.67 -5.19,-23.86 -3.55,-6.34 -9.91,-9.56 -18.32,-9.52 -6.21,0 -11.15,1.32 -14.7,4.13 -3.44,2.74 -6.09,6.53 -7.98,11.27l1.2 0.48 1.28 0 0 -14.55 -32.75 0 0 147.69 1.28 0 0 -1.28 0 0z"/>
  <path class="fil0" d="M324.7 136.3c2.43,0 4.09,-1.03 4.97,-3.08 0.89,-2.04 1.33,-4.25 1.33,-6.63l0 -34.66c-4.1,1.66 -7.27,3.74 -9.54,6.26 -2.27,2.51 -3.4,6.21 -3.4,11.07l0 16c0,7.36 2.21,11.04 6.63,11.04l0.01 0zm-11.7 23.05c-6.91,0 -12.18,-1.61 -15.79,-4.81 -3.63,-3.2 -6.1,-7.6 -7.43,-13.19 -1.32,-5.58 -1.99,-11.91 -1.99,-18.99 0,-7.57 0.75,-13.77 2.24,-18.61 1.49,-4.84 4.05,-8.81 7.67,-11.9 3.63,-3.09 8.62,-5.73 14.97,-7.88l18.41 -6.3 0 -12.77c0,-6.69 -2.18,-10.04 -6.55,-10.04 -3.98,0 -5.97,2.71 -5.97,8.13l0 7.46 -28.86 0 -0.08 -1.7c0,-0.69 0,-1.48 0,-2.36 0,-12.38 2.91,-21.17 8.75,-26.33 5.83,-5.17 15.07,-7.75 27.73,-7.75 6.64,0 12.58,1.17 17.83,3.52 5.26,2.35 9.42,5.82 12.48,10.41 3.07,4.59 4.61,10.26 4.61,17l0 94.78 -29.52 0 0 -14.76c-1.45,5.2 -3.82,9.18 -7.14,11.94 -3.31,2.77 -7.1,4.15 -11.36,4.15l0 0z"/>
  <path class="fil1" d="M324.7 136.3l0 1.28c2.78,0.06 5.14,-1.36 6.15,-3.84 0.96,-2.21 1.44,-4.61 1.44,-7.15l0 -36.57 -1.77 0.72c-4.23,1.71 -7.58,3.89 -10.01,6.59 -2.56,2.84 -3.74,6.89 -3.74,11.93l0 16c0.01,3.81 0.55,6.76 1.85,8.94 1.27,2.19 3.51,3.42 6.08,3.38l0 -2.57c-1.86,-0.03 -2.94,-0.64 -3.88,-2.13 -0.92,-1.51 -1.48,-4.07 -1.47,-7.62l0 -16c0,-4.67 1.09,-8.01 3.07,-10.21 2.1,-2.33 5.1,-4.33 9.06,-5.93l-0.48 -1.19 -1.29 0 0 34.66c0,2.22 -0.41,4.25 -1.22,6.12 -0.76,1.61 -1.71,2.24 -3.79,2.3l0 1.29 0 0zm-11.7 23.05l0 -1.29c-6.72,0 -11.64,-1.55 -14.94,-4.48 -3.4,-3.01 -5.74,-7.14 -7.03,-12.52 -1.3,-5.47 -1.95,-11.7 -1.95,-18.7 0,-7.48 0.75,-13.57 2.18,-18.23 1.43,-4.63 3.85,-8.36 7.28,-11.3 3.45,-2.95 8.29,-5.53 14.54,-7.64l0.03 -0.01 19.26 -6.6 0 -13.68c-0.01,-3.49 -0.55,-6.22 -1.85,-8.23 -1.29,-2.03 -3.49,-3.12 -5.99,-3.1 -2.27,-0.02 -4.28,0.85 -5.52,2.56 -1.23,1.7 -1.73,4 -1.73,6.86l0 6.18 -26.35 0 -0.03 -0.48 -1.28 0.06 1.28 0c0,-0.69 0,-1.47 0,-2.36 0,-12.21 2.89,-20.56 8.32,-25.36 5.47,-4.87 14.39,-7.43 26.88,-7.43 6.49,0 12.24,1.14 17.31,3.41 5.05,2.27 9,5.56 11.94,9.95 2.9,4.34 4.38,9.73 4.38,16.28l0 93.5 -26.95 0 0 -22.95 -2.52 9.13c-1.39,5.01 -3.64,8.73 -6.72,11.29 -3.11,2.59 -6.56,3.85 -10.54,3.85l0 2.58c4.54,0.01 8.66,-1.51 12.18,-4.45 3.57,-2.96 6.07,-7.21 7.56,-12.59l-1.24 -0.34 -1.29 0 0 16.05 32.09 0 0 -96.07c0.01,-6.93 -1.58,-12.88 -4.82,-17.71 -3.19,-4.79 -7.57,-8.43 -13.02,-10.87 -5.44,-2.44 -11.57,-3.64 -18.36,-3.64 -12.81,0.01 -22.39,2.6 -28.58,8.08 -6.24,5.54 -9.19,14.73 -9.19,27.29 0,0.89 0,1.68 0,2.36l0 0.03 0.09 1.74 0.06 1.22 31.37 0 0 -8.75c-0.01,-2.56 0.49,-4.32 1.24,-5.33 0.75,-1 1.73,-1.49 3.44,-1.51 1.86,0.03 2.94,0.61 3.84,1.92 0.88,1.34 1.43,3.62 1.42,6.83l0 11.85 -17.54 6 0.01 0c-6.47,2.19 -11.6,4.88 -15.39,8.12 -3.81,3.25 -6.51,7.46 -8.06,12.5 -1.55,5.02 -2.3,11.33 -2.3,18.99 0,7.16 0.67,13.59 2.02,19.29 1.38,5.78 3.98,10.45 7.82,13.85 3.95,3.49 9.56,5.14 16.65,5.14l0 -1.29z"/>
  <path class="fil2" d="M398.4 158.02l0 -124.39 29.03 0 0 14.43c1.33,-5.08 3.59,-8.98 6.8,-11.69 3.2,-2.7 7.9,-4.06 14.09,-4.06 4.98,0 9.22,1.15 12.73,3.43 3.51,2.31 5.98,5.33 7.42,9.09 2.27,-4.09 4.94,-7.2 8.01,-9.33 3.07,-2.12 7.45,-3.19 13.14,-3.19 6.91,0 12.23,1.47 15.96,4.43 3.73,2.96 6.33,7.05 7.8,12.28 1.46,5.22 2.2,11.26 2.2,18.12l0 90.88 -29.61 0 0 -91.38c0,-8.02 -2.04,-12.02 -6.14,-12.02 -2.16,0 -3.81,0.73 -4.97,2.19 -1.16,1.47 -1.96,3.28 -2.41,5.43 -0.44,2.16 -0.66,4.32 -0.66,6.47l0 89.31 -29.6 0 0 -91.38c0,-2.6 -0.32,-5.2 -0.95,-7.8 -0.64,-2.6 -2.26,-3.9 -4.86,-3.9 -2.21,0 -3.93,0.81 -5.14,2.41 -1.22,1.61 -2.05,3.58 -2.48,5.93 -0.45,2.35 -0.67,4.66 -0.67,6.93l0 87.81 -29.69 0 0 0z"/>
  <path class="fil1" d="M398.4 158.02l1.29 0 0 -123.1 26.45 0 0 23.15 2.53 -9.69c1.28,-4.89 3.42,-8.52 6.39,-11.03 2.88,-2.43 7.25,-3.76 13.26,-3.76 4.79,0 8.75,1.1 12.03,3.23 3.31,2.17 5.58,4.96 6.92,8.47l0.99 2.57 1.34 -2.41c2.19,-3.96 4.74,-6.9 7.61,-8.9 2.75,-1.91 6.87,-2.96 12.41,-2.96 6.74,0 11.75,1.44 15.16,4.16 3.51,2.79 5.95,6.6 7.36,11.61 1.43,5.08 2.15,11.01 2.15,17.78l0 89.59 -27.03 0 0 -90.09c-0.01,-4.12 -0.5,-7.29 -1.68,-9.61 -1.13,-2.32 -3.26,-3.75 -5.75,-3.7 -2.43,-0.02 -4.58,0.89 -5.98,2.68 -1.3,1.65 -2.18,3.66 -2.65,5.98 -0.47,2.24 -0.7,4.48 -0.7,6.72l0 88.03 -27.02 0 0 -90.1c0,-2.7 -0.34,-5.4 -1,-8.1 -0.64,-3.02 -3.05,-4.99 -6.1,-4.88 -2.52,-0.02 -4.73,0.99 -6.16,2.92 -1.36,1.78 -2.27,3.95 -2.73,6.46 -0.46,2.42 -0.69,4.81 -0.69,7.17l0 86.53 -28.4 0 0 1.28 1.29 0 -1.29 0 0 1.29 30.98 0 0 -89.1c0,-2.19 0.21,-4.41 0.63,-6.69 0.42,-2.19 1.18,-3.97 2.25,-5.39 1.01,-1.28 2.21,-1.87 4.12,-1.9 2.14,0.1 2.96,0.75 3.6,2.91 0.62,2.51 0.92,5 0.92,7.5l0 92.67 32.18 0 0 -90.6c0,-2.07 0.2,-4.14 0.63,-6.21 0.41,-1.99 1.14,-3.6 2.16,-4.89 0.92,-1.14 2.09,-1.69 3.96,-1.71 1.61,0.04 2.55,0.62 3.46,2.3 0.87,1.7 1.4,4.54 1.39,8.44l0 92.67 32.18 0 0 -92.17c0,-6.95 -0.75,-13.1 -2.25,-18.47 -1.51,-5.44 -4.27,-9.8 -8.23,-12.93 -4.05,-3.21 -9.68,-4.72 -16.76,-4.72 -5.85,0.01 -10.49,1.09 -13.88,3.43 -3.27,2.26 -6.05,5.53 -8.39,9.75l1.12 0.63 1.2 -0.46c-1.53,-4.01 -4.2,-7.27 -7.92,-9.69 -3.75,-2.46 -8.26,-3.66 -13.43,-3.66 -6.37,0 -11.39,1.39 -14.93,4.37 -3.45,2.91 -5.84,7.08 -7.21,12.35l1.24 0.32 1.29 0 0 -15.71 -31.6 0 0 126.96 1.29 0 0 -1.29 0 0z"/>
  <path class="fil2" d="M527.19 158.02l0 -124.39 30.18 0 0 13.86c1.44,-4.81 3.98,-8.58 7.63,-11.28 3.65,-2.72 8.24,-4.07 13.76,-4.07l0 24.8c-2.43,0 -5.33,0.26 -8.7,0.78 -3.37,0.53 -6.33,1.25 -8.88,2.16 -2.54,0.92 -3.81,1.92 -3.81,3.02l0 95.12 -30.18 0 0 0z"/>
  <path class="fil1" d="M527.19 158.02l1.28 0 0 -123.1 27.62 0 0 21.36 2.51 -8.43c1.38,-4.58 3.75,-8.07 7.17,-10.62 3.39,-2.51 7.67,-3.8 12.99,-3.8l0 -1.29 -1.28 0 0 24.8 1.28 0 0 -1.29c-2.52,0 -5.48,0.27 -8.9,0.8 -3.44,0.54 -6.47,1.27 -9.11,2.22 -1.35,0.48 -2.41,1 -3.23,1.64 -0.79,0.62 -1.43,1.51 -1.43,2.59l0 93.83 -28.9 0 0 1.29 1.28 0 -1.28 0 0 1.29 31.46 0 0 -96.41 0.47 -0.57c0.46,-0.38 1.31,-0.82 2.5,-1.25 2.45,-0.87 5.33,-1.57 8.64,-2.08 3.32,-0.53 6.16,-0.78 8.5,-0.78l1.29 0 0 -27.37 -1.29 0c-5.73,0 -10.62,1.42 -14.52,4.32 -3.89,2.88 -6.6,6.92 -8.1,11.94l1.23 0.37 1.29 0 0 -15.13 -32.76 0 0 126.96 1.29 0 0 -1.29 0 0z"/>
  <path class="fil2" d="M585.9 158.02l0 -124.39 29.68 0 0 124.39 -29.68 0zm0 -132.01l0 -24.72 29.68 0 0 24.72 -29.68 0z"/>
  <path class="fil1" d="M585.9 158.02l1.28 0 0 -123.1 27.12 0 0 121.81 -28.4 0 0 1.29 1.28 0 -1.28 0 0 1.29 30.97 0 0 -126.96 -32.26 0 0 126.96 1.29 0 0 -1.29 0 0zm0 -132.01l1.28 0 0 -23.43 27.12 0 0 22.14 -28.4 0 0 1.29 1.28 0 -1.28 0 0 1.27 30.97 0 0 -27.28 -32.26 0 0 27.28 1.29 0 0 -1.27 0 0z"/>
  <path class="fil2" d="M652.9 159.35c-8.02,0 -13.42,-1.7 -16.21,-5.1 -2.79,-3.4 -4.19,-8.61 -4.19,-15.63l0 -77.54 -8.38 0 0 -22.64 8.38 0 0 -26.37 28.86 0 0 26.37 8.37 0 0 22.64 -8.37 0 0 70.58c0,2.04 0.33,3.48 1,4.3 0.66,0.83 1.93,1.25 3.81,1.25 1.33,0 2.52,-0.11 3.56,-0.34l0 20.23c-0.66,0.23 -2.73,0.66 -6.22,1.29 -3.48,0.64 -7.02,0.96 -10.61,0.96l0 0z"/>
  <path class="fil1" d="M652.9 159.35l0 -1.29c-7.86,0.02 -12.86,-1.71 -15.22,-4.63 -2.51,-3.05 -3.9,-7.95 -3.89,-14.81l0 -78.82 -8.38 0 0 -20.07 8.38 0 0 -26.37 26.28 0 0 26.37 8.38 0 0 20.07 -8.38 0 0 71.86c0.02,2.16 0.31,3.85 1.28,5.11 1.08,1.31 2.78,1.72 4.82,1.73 1.4,0 2.67,-0.12 3.83,-0.37l-0.27 -1.26 -1.28 0 0 20.24 1.28 0 -0.41 -1.22c-0.45,0.16 -2.59,0.62 -6.04,1.25 -3.4,0.61 -6.86,0.92 -10.38,0.92l0 2.58c3.67,0 7.28,-0.33 10.84,-0.97 3.52,-0.66 5.53,-1.06 6.4,-1.34l0.88 -0.3 0 -22.74 -1.55 0.33c-0.95,0.2 -2.05,0.3 -3.3,0.3 -1.72,0.01 -2.57,-0.41 -2.81,-0.76 -0.36,-0.4 -0.73,-1.59 -0.71,-3.5l0 -69.29 8.37 0 0 -25.21 -8.37 0 0 -26.37 -31.44 0 0 26.37 -8.37 0 0 25.21 8.37 0 0 76.25c0.01,7.18 1.41,12.69 4.48,16.45 3.23,3.88 9.04,5.56 17.21,5.57l0 -1.29 0 0z"/>
  <path class="fil2" d="M349.85 136.3c2.43,0 4.09,-1.03 4.98,-3.08 0.88,-2.04 1.32,-4.25 1.32,-6.62l0 -34.67c-4.09,1.66 -7.27,3.74 -9.53,6.26 -2.27,2.51 -3.4,6.2 -3.4,11.07l0 16c0,7.36 2.21,11.04 6.63,11.04l0 0zm-11.69 23.05c-6.91,0 -12.18,-1.6 -15.8,-4.81 -3.62,-3.2 -6.1,-7.6 -7.42,-13.19 -1.33,-5.58 -1.99,-11.91 -1.99,-18.99 0,-7.57 0.74,-13.77 2.24,-18.61 1.49,-4.84 4.05,-8.81 7.67,-11.9 3.62,-3.09 8.61,-5.73 14.97,-7.88l18.41 -6.3 0 -12.77c0,-6.69 -2.19,-10.04 -6.55,-10.04 -3.98,0 -5.98,2.71 -5.98,8.13l0 7.46 -28.85 0 -0.08 -1.7c0,-0.69 0,-1.48 0,-2.36 0,-12.38 2.91,-21.17 8.74,-26.33 5.84,-5.17 15.08,-7.75 27.74,-7.75 6.64,0 12.58,1.17 17.83,3.53 5.25,2.34 9.41,5.81 12.48,10.4 3.07,4.59 4.6,10.25 4.6,17l0 94.78 -29.52 0 0 -14.76c-1.44,5.2 -3.81,9.18 -7.13,11.94 -3.32,2.77 -7.1,4.15 -11.36,4.15z"/>
  <path class="fil1" d="M349.85 136.3l0 1.28c2.78,0.06 5.14,-1.35 6.16,-3.84 0.96,-2.21 1.43,-4.61 1.43,-7.14l0 -36.58 -1.77 0.72c-4.22,1.71 -7.57,3.89 -10.01,6.59 -2.55,2.84 -3.73,6.89 -3.73,11.93l0 16c0.01,3.81 0.55,6.76 1.84,8.94 1.28,2.19 3.52,3.42 6.08,3.38l0 -2.57c-1.86,-0.03 -2.94,-0.64 -3.87,-2.13 -0.92,-1.51 -1.49,-4.07 -1.47,-7.62l0 -16c0,-4.67 1.08,-8.01 3.06,-10.21 2.1,-2.33 5.11,-4.33 9.07,-5.93l-0.49 -1.19 -1.28 0 0 34.67c0,2.21 -0.42,4.24 -1.22,6.12 -0.76,1.6 -1.72,2.23 -3.8,2.29l0 1.29 0 0zm-11.69 23.05l0 -1.29c-6.73,0 -11.65,-1.55 -14.95,-4.48 -3.39,-3.01 -5.74,-7.14 -7.02,-12.52 -1.3,-5.47 -1.96,-11.7 -1.96,-18.7 0,-7.48 0.75,-13.57 2.19,-18.23 1.43,-4.63 3.84,-8.36 7.27,-11.3 3.45,-2.95 8.29,-5.53 14.55,-7.64l0.02 -0.01 19.26 -6.6 0 -13.68c-0.01,-3.49 -0.54,-6.22 -1.85,-8.23 -1.28,-2.03 -3.49,-3.12 -5.99,-3.1 -2.27,-0.02 -4.28,0.85 -5.51,2.56 -1.23,1.7 -1.73,4 -1.74,6.86l0 6.18 -26.35 0 -0.02 -0.48 -1.28 0.06 1.28 0c0,-0.69 0,-1.47 0,-2.36 0,-12.21 2.89,-20.56 8.32,-25.36 5.46,-4.87 14.38,-7.43 26.88,-7.43 6.49,0 12.24,1.14 17.3,3.41 5.06,2.27 9,5.56 11.94,9.95 2.9,4.34 4.38,9.73 4.38,16.28l0 93.5 -26.94 0 0 -22.95 -2.53 9.13c-1.39,5.01 -3.64,8.73 -6.72,11.29 -3.11,2.59 -6.56,3.85 -10.53,3.85l0 2.58c4.54,0.01 8.66,-1.5 12.18,-4.45 3.56,-2.96 6.06,-7.21 7.55,-12.59l-1.24 -0.34 -1.29 0 0 16.05 32.1 0 0 -96.07c0,-6.93 -1.59,-12.88 -4.83,-17.71 -3.19,-4.79 -7.57,-8.43 -13.02,-10.87 -5.43,-2.44 -11.57,-3.64 -18.35,-3.64 -12.82,0.01 -22.39,2.6 -28.59,8.08 -6.24,5.54 -9.18,14.73 -9.18,27.29 0,0.89 0,1.68 0,2.36l0 0.03 0.08 1.74 0.06 1.22 31.37 0 0 -8.75c-0.01,-2.56 0.49,-4.32 1.24,-5.33 0.75,-1 1.73,-1.48 3.44,-1.51 1.87,0.03 2.94,0.61 3.84,1.92 0.88,1.34 1.44,3.62 1.43,6.83l0 11.85 -17.54 6.01 0 -0.01c-6.46,2.19 -11.59,4.88 -15.39,8.12 -3.81,3.25 -6.51,7.46 -8.06,12.5 -1.55,5.02 -2.3,11.34 -2.3,18.99 0,7.16 0.67,13.59 2.03,19.3 1.37,5.77 3.97,10.44 7.82,13.84 3.94,3.49 9.55,5.14 16.65,5.14l0 -1.29 0 0z"/>
  <path class="fil2" d="M318.71 179.38l0 10.58 5.28 0 2.05 -0.41 1.68 -1.14 1.13 -1.69 0.41 -2.05 -0.41 -2.05 -1.13 -1.69 -1.68 -1.13 -2.05 -0.42 -5.28 0 0 0zm0 21.14l-5.29 0 0 -26.42 10.57 0c0.97,0 1.91,0.13 2.8,0.37 0.9,0.26 1.74,0.61 2.52,1.07l2.14 1.66 1.65 2.15c0.47,0.78 0.82,1.62 1.07,2.52 0.25,0.9 0.38,1.83 0.38,2.81 0,0.9 -0.11,1.79 -0.34,2.64 -0.23,0.86 -0.56,1.68 -0.98,2.45l-1.55 2.14 -2.07 1.7 2.93 6.9 -5.62 0 -2.3 -5.32 -5.91 0.04 0 5.29 0 0z"/>
  <path class="fil2" d="M347.68 185.32l-0.69 -0.17 -0.71 -0.03 -1.94 0.37 -1.58 1.08 -1.07 1.69c-0.25,0.65 -0.38,1.39 -0.38,2.21l0.02 0.63 0.1 0.71 0.15 0.69 0.24 0.59 5.86 -7.77 0 0zm-2.57 10.37l0.58 0.11 0.59 0.03 1.42 -0.2 1.28 -0.58 1.07 -0.92 0.76 -1.21 3.69 3.7 -1.61 1.79 -1.97 1.34 -2.24 0.85c-0.77,0.19 -1.58,0.28 -2.4,0.28 -1.39,0 -2.69,-0.26 -3.91,-0.77 -1.23,-0.52 -2.29,-1.23 -3.21,-2.15 -0.91,-0.93 -1.63,-2.03 -2.17,-3.29 -0.52,-1.28 -0.78,-2.67 -0.78,-4.2 0,-1.56 0.26,-2.98 0.78,-4.27 0.54,-1.29 1.26,-2.39 2.17,-3.3 0.92,-0.9 1.98,-1.61 3.21,-2.12 1.22,-0.5 2.52,-0.75 3.91,-0.75 0.82,0 1.63,0.1 2.41,0.3l2.24 0.84 1.98 1.36 1.62 1.79 -9.42 11.37 0 0z"/>
  <path class="fil2" d="M363.07 175.43l-0.27 1.3 -0.72 1.07 -1.07 0.71 -1.3 0.27 -1.33 -0.27 -1.08 -0.71 -0.73 -1.07 -0.27 -1.3 0.27 -1.3 0.73 -1.07 1.08 -0.72 1.33 -0.27 1.3 0.27 1.07 0.72 0.72 1.07 0.27 1.3zm-13.51 32.6l0 -5.06 2.78 0.03 1.88 -0.42 1.5 -1.1 1.01 -1.59 0.37 -1.9 0 -17.21 5.14 0 0 17.21 -0.04 0c-0.01,0.92 -0.14,1.81 -0.38,2.67 -0.24,0.86 -0.58,1.66 -1.02,2.41l-1.59 2.02 -2.03 1.57c-0.74,0.43 -1.54,0.77 -2.39,1.02 -0.86,0.23 -1.75,0.35 -2.67,0.35l-2.56 0 0 0z"/>
  <path class="fil2" d="M380.53 198.21l-1.3 1.04 -1.45 0.85 -1.55 0.57 -1.63 0.21c-1.22,0 -2.36,-0.21 -3.43,-0.64 -1.07,-0.43 -2.01,-1.04 -2.81,-1.84 -0.8,-0.79 -1.44,-1.75 -1.9,-2.89 -0.46,-1.14 -0.69,-2.41 -0.69,-3.82l0 -10.91 5.01 0 0 10.91 0.31 1.77 0.82 1.32 1.2 0.82 1.49 0.27 1.46 -0.36 1.21 -0.95 0.81 -1.33 0.29 -1.54 0 -10.91 5.03 0 0 19.74 -1.21 0 -1.66 -2.31z"/>
  <polygon class="fil2" points="392.83,200.52 385.32,180.78 391.05,180.78 395.35,193.09 399.65,180.78 405.39,180.78 397.88,200.52 "/>
  <path class="fil2" d="M417.16 185.32l-0.69 -0.17 -0.71 -0.03 -1.94 0.37 -1.59 1.08 -1.06 1.69c-0.25,0.65 -0.38,1.39 -0.38,2.21l0.03 0.63 0.09 0.71 0.16 0.69 0.24 0.59 5.85 -7.77zm-2.57 10.37l0.58 0.11 0.59 0.03 1.42 -0.2 1.29 -0.58 1.06 -0.92 0.76 -1.21 3.69 3.7 -1.61 1.79 -1.97 1.34 -2.23 0.85c-0.78,0.19 -1.58,0.28 -2.41,0.28 -1.38,0 -2.69,-0.26 -3.91,-0.77 -1.22,-0.52 -2.29,-1.23 -3.21,-2.15 -0.91,-0.93 -1.63,-2.03 -2.16,-3.29 -0.53,-1.28 -0.79,-2.67 -0.79,-4.2 0,-1.56 0.26,-2.98 0.79,-4.27 0.53,-1.29 1.25,-2.39 2.16,-3.3 0.92,-0.9 1.99,-1.61 3.21,-2.12 1.22,-0.5 2.53,-0.75 3.91,-0.75 0.83,0 1.63,0.1 2.42,0.3l2.24 0.84 1.97 1.36 1.62 1.79 -9.42 11.37 0 0z"/>
  <path class="fil2" d="M431.57 200.52l-5.03 0 0 -19.74 1.22 0 1.65 1.92c0.81,-0.74 1.73,-1.3 2.76,-1.7 1.02,-0.4 2.1,-0.6 3.21,-0.6 1.21,0 2.34,0.22 3.41,0.69 1.07,0.46 2,1.09 2.8,1.89 0.8,0.81 1.43,1.75 1.89,2.82 0.46,1.08 0.69,2.22 0.69,3.44l0 11.27 -5.03 0 0 -11.27 -0.29 -1.47 -0.81 -1.2 -1.2 -0.81 -1.45 -0.3 -1.5 0.3 -1.21 0.81 -0.81 1.2 -0.3 1.47 0 11.27 0 0.01z"/>
  <path class="fil2" d="M461.78 190.47l-0.4 -2 -1.07 -1.71 -1.59 -1.2 -1.95 -0.44 -1.95 0.34 -1.58 1.04 -1.06 1.68c-0.26,0.67 -0.38,1.44 -0.38,2.29 0,0.86 0.12,1.63 0.38,2.3l1.06 1.69 1.58 1.03 1.95 0.34 1.95 -0.45 1.59 -1.2 1.07 -1.7 0.4 -2.01 0 0zm5.06 10.05l-1.21 0 -1.95 -2.72 -1.52 1.21 -1.69 0.98 -1.81 0.65 -1.89 0.24c-1.39,0 -2.69,-0.24 -3.92,-0.7 -1.22,-0.46 -2.28,-1.15 -3.2,-2.03 -0.91,-0.89 -1.64,-1.98 -2.17,-3.27 -0.52,-1.3 -0.79,-2.76 -0.79,-4.41 0,-1.53 0.27,-2.94 0.79,-4.23 0.53,-1.27 1.26,-2.39 2.17,-3.3 0.92,-0.92 1.98,-1.63 3.2,-2.14 1.23,-0.52 2.53,-0.77 3.92,-0.77l1.9 0.24 1.82 0.66 1.69 1 1.5 1.23 1.95 -2.33 1.21 0 0 19.69z"/>
  <path class="fil2" d="M480.57 200.52c-1.22,0 -2.36,-0.24 -3.43,-0.7 -1.07,-0.46 -2,-1.09 -2.81,-1.9 -0.8,-0.8 -1.44,-1.73 -1.89,-2.81 -0.47,-1.06 -0.7,-2.21 -0.7,-3.42l0 -5.86 -2.44 0 0 -5 2.44 0 0 -7.89 5.01 0 0 7.89 7.63 0 0 5 -7.63 0 0 5.86 0.3 1.48 0.81 1.21 1.21 0.82 1.5 0.31 3.81 0 0 5.01 -3.81 0 0 0z"/>
  <path class="fil2" d="M497.62 185.32l-0.69 -0.17 -0.71 -0.03 -1.94 0.37 -1.58 1.08 -1.06 1.69c-0.26,0.65 -0.39,1.39 -0.39,2.21l0.03 0.63 0.09 0.71 0.16 0.69 0.24 0.59 5.85 -7.77zm-2.57 10.37l0.58 0.11 0.59 0.03 1.42 -0.2 1.29 -0.58 1.06 -0.92 0.77 -1.21 3.68 3.7 -1.61 1.79 -1.97 1.34 -2.24 0.85c-0.77,0.19 -1.57,0.28 -2.4,0.28 -1.38,0 -2.69,-0.26 -3.91,-0.77 -1.22,-0.52 -2.29,-1.23 -3.2,-2.15 -0.92,-0.93 -1.64,-2.03 -2.17,-3.29 -0.53,-1.28 -0.79,-2.67 -0.79,-4.2 0,-1.56 0.26,-2.98 0.79,-4.27 0.53,-1.29 1.25,-2.39 2.17,-3.3 0.91,-0.9 1.98,-1.61 3.2,-2.12 1.22,-0.5 2.53,-0.75 3.91,-0.75 0.83,0 1.63,0.1 2.42,0.3l2.23 0.84 1.99 1.36 1.62 1.79 -9.43 11.37 0 0z"/>
  <path class="fil2" d="M522.31 208.03l0 -5.06 2.8 0.03 1.42 -0.23 1.26 -0.68 1.02 -0.99 0.72 -1.26 -1.69 0.69 -1.72 0.35c-1.21,0 -2.36,-0.21 -3.43,-0.64 -1.06,-0.43 -2,-1.04 -2.8,-1.84 -0.81,-0.79 -1.44,-1.75 -1.9,-2.89 -0.47,-1.14 -0.69,-2.41 -0.69,-3.82l0 -10.91 5.01 0 0 10.91 0.3 1.83 0.82 1.3 1.21 0.79 1.48 0.26 1.47 -0.36 1.2 -0.95 0.81 -1.33 0.3 -1.54 0 -10.91 5.07 0 0 17.25c-0.02,1.39 -0.29,2.68 -0.82,3.9 -0.53,1.21 -1.25,2.27 -2.16,3.18 -0.92,0.91 -1.98,1.64 -3.2,2.16 -1.22,0.53 -2.52,0.79 -3.9,0.79l-2.58 -0.03 0 0z"/>
  <path class="fil2" d="M552.79 190.47l-0.39 -2.2 -1.08 -1.69 -1.59 -1.09 -1.95 -0.37 -1.94 0.37 -1.59 1.09 -1.05 1.69 -0.39 2.2 0.39 2.12 1.05 1.7 1.59 1.13 1.94 0.41 1.95 -0.39 1.59 -1.09 1.08 -1.69 0.39 -2.19zm5.07 0c0,1.48 -0.27,2.85 -0.79,4.12 -0.53,1.27 -1.25,2.37 -2.16,3.31 -0.91,0.91 -1.97,1.65 -3.2,2.18 -1.22,0.53 -2.53,0.8 -3.93,0.8 -1.38,0 -2.69,-0.27 -3.91,-0.8 -1.22,-0.53 -2.3,-1.27 -3.21,-2.18 -0.91,-0.94 -1.63,-2.04 -2.17,-3.31 -0.52,-1.27 -0.78,-2.64 -0.78,-4.12 0,-1.49 0.26,-2.89 0.78,-4.15 0.54,-1.28 1.26,-2.4 2.17,-3.32 0.91,-0.92 1.99,-1.65 3.21,-2.18 1.22,-0.53 2.53,-0.79 3.91,-0.79 1.4,0 2.71,0.25 3.93,0.75 1.23,0.49 2.29,1.2 3.2,2.11 0.91,0.92 1.63,2.02 2.16,3.3 0.52,1.29 0.79,2.71 0.79,4.28z"/>
  <path class="fil2" d="M575.14 198.21l-1.3 1.04 -1.44 0.85 -1.56 0.57 -1.64 0.21c-1.21,0 -2.35,-0.21 -3.42,-0.64 -1.07,-0.43 -2.01,-1.04 -2.81,-1.84 -0.81,-0.79 -1.44,-1.75 -1.9,-2.89 -0.46,-1.14 -0.69,-2.41 -0.69,-3.82l0 -10.91 5.01 0 0 10.91 0.31 1.77 0.82 1.32 1.2 0.82 1.48 0.27 1.47 -0.36 1.21 -0.95 0.81 -1.33 0.29 -1.54 0 -10.91 5.03 0 0 19.74 -1.21 0 -1.66 -2.31z"/>
  <path class="fil2" d="M586.87 200.52l-5.03 0 0 -19.74 1.22 0 1.66 2.34c0.8,-0.73 1.73,-1.31 2.76,-1.7 1.03,-0.39 2.09,-0.6 3.21,-0.6l4.43 0 0 5.01 -4.43 0 -1.5 0.29 -1.21 0.82 -0.81 1.21 -0.3 1.49 0 10.87 0 0.01z"/>
  <polygon class="fil2" points="627.05,200.52 608.55,200.52 608.55,174.1 613.84,174.1 613.84,195.23 627.05,195.23 "/>
  <path class="fil2" d="M634.32 200.52l-5.06 0 0 -19.74 5.06 0 0 19.74zm0.87 -25.09l-0.27 1.3 -0.73 1.07 -1.08 0.71 -1.31 0.27 -1.32 -0.27 -1.07 -0.71 -0.71 -1.07 -0.27 -1.3 0.27 -1.3 0.71 -1.07 1.07 -0.72 1.32 -0.27 1.31 0.27 1.08 0.72 0.73 1.07 0.27 1.3z"/>
  <path class="fil2" d="M644.54 200.52l-5.03 0 0 -14.72 -2.45 0 0 -5.02 2.45 0 0 -0.94c0,-1.21 0.23,-2.36 0.69,-3.42 0.47,-1.07 1.1,-2 1.9,-2.79 0.81,-0.79 1.75,-1.42 2.81,-1.88 1.07,-0.46 2.21,-0.69 3.43,-0.69l3.77 0 0 5.01 -3.77 0 -1.5 0.28 -1.2 0.8 -0.8 1.2 -0.3 1.49 0 0.94 6.17 0 0 5.02 -6.17 0 0 14.72 0 0z"/>
  <path class="fil2" d="M663.15 185.32l-0.69 -0.17 -0.71 -0.03 -1.94 0.37 -1.59 1.08 -1.06 1.69c-0.26,0.65 -0.38,1.39 -0.38,2.21l0.02 0.63 0.1 0.71 0.15 0.69 0.24 0.59 5.86 -7.77 0 0zm-2.58 10.37l0.59 0.11 0.59 0.03 1.41 -0.2 1.29 -0.58 1.07 -0.92 0.76 -1.21 3.68 3.7 -1.61 1.79 -1.97 1.34 -2.23 0.85c-0.78,0.19 -1.58,0.28 -2.4,0.28 -1.39,0 -2.7,-0.26 -3.91,-0.77 -1.23,-0.52 -2.3,-1.23 -3.21,-2.15 -0.91,-0.93 -1.64,-2.03 -2.16,-3.29 -0.53,-1.28 -0.8,-2.67 -0.8,-4.2 0,-1.56 0.27,-2.98 0.8,-4.27 0.52,-1.29 1.25,-2.39 2.16,-3.3 0.91,-0.9 1.98,-1.61 3.21,-2.12 1.21,-0.5 2.52,-0.75 3.91,-0.75 0.82,0 1.62,0.1 2.41,0.3l2.24 0.84 1.98 1.36 1.62 1.79 -9.43 11.37 0 0z"/>
 </g>
</svg>
